<svg width="95" height="156" viewBox="0 0 95 156" fill="none" xmlns="http://www.w3.org/2000/svg">
<g clip-path="url(#clip0_25_6568)">
<path d="M-5.27791 178.386C-5.90124 178.386 -6.49904 178.139 -6.9398 177.699C-7.38056 177.26 -7.62817 176.664 -7.62817 176.042V169.792C-7.62817 169.171 -7.38056 168.574 -6.9398 168.135C-6.49904 167.695 -5.90124 167.448 -5.27791 167.448C-4.65459 167.448 -4.05679 167.695 -3.61603 168.135C-3.17527 168.574 -2.92765 169.171 -2.92765 169.792V176.042C-2.92765 176.664 -3.17527 177.26 -3.61603 177.699C-4.05679 178.139 -4.65459 178.386 -5.27791 178.386ZM-5.27791 165.886C-5.90124 165.886 -6.49904 165.639 -6.9398 165.199C-7.38056 164.76 -7.62817 164.164 -7.62817 163.542V157.292C-7.62817 156.671 -7.38056 156.074 -6.9398 155.635C-6.49904 155.195 -5.90124 154.948 -5.27791 154.948C-4.65459 154.948 -4.05679 155.195 -3.61603 155.635C-3.17527 156.074 -2.92765 156.671 -2.92765 157.292V163.542C-2.92765 164.164 -3.17527 164.76 -3.61603 165.199C-4.05679 165.639 -4.65459 165.886 -5.27791 165.886ZM-5.27791 153.386C-5.90124 153.386 -6.49904 153.139 -6.9398 152.699C-7.38056 152.26 -7.62817 151.664 -7.62817 151.042V144.792C-7.62817 144.171 -7.38056 143.574 -6.9398 143.135C-6.49904 142.695 -5.90124 142.448 -5.27791 142.448C-4.65459 142.448 -4.05679 142.695 -3.61603 143.135C-3.17527 143.574 -2.92765 144.171 -2.92765 144.792V151.042C-2.92765 151.664 -3.17527 152.26 -3.61603 152.699C-4.05679 153.139 -4.65459 153.386 -5.27791 153.386ZM-5.27791 140.886C-5.90124 140.886 -6.49904 140.639 -6.9398 140.199C-7.38056 139.76 -7.62817 139.164 -7.62817 138.542V132.292C-7.62817 131.671 -7.38056 131.074 -6.9398 130.635C-6.49904 130.195 -5.90124 129.948 -5.27791 129.948C-4.65459 129.948 -4.05679 130.195 -3.61603 130.635C-3.17527 131.074 -2.92765 131.671 -2.92765 132.292V138.542C-2.92765 139.164 -3.17527 139.76 -3.61603 140.199C-4.05679 140.639 -4.65459 140.886 -5.27791 140.886ZM-5.27791 128.386C-5.90124 128.386 -6.49904 128.139 -6.9398 127.699C-7.38056 127.26 -7.62817 126.664 -7.62817 126.042V119.792C-7.62817 119.171 -7.38056 118.574 -6.9398 118.135C-6.49904 117.695 -5.90124 117.448 -5.27791 117.448C-4.65459 117.448 -4.05679 117.695 -3.61603 118.135C-3.17527 118.574 -2.92765 119.171 -2.92765 119.792V126.042C-2.92765 126.664 -3.17527 127.26 -3.61603 127.699C-4.05679 128.139 -4.65459 128.386 -5.27791 128.386ZM-5.27791 115.886C-5.90124 115.886 -6.49904 115.639 -6.9398 115.199C-7.38056 114.76 -7.62817 114.164 -7.62817 113.542V107.292C-7.62817 106.671 -7.38056 106.074 -6.9398 105.635C-6.49904 105.195 -5.90124 104.948 -5.27791 104.948C-4.65459 104.948 -4.05679 105.195 -3.61603 105.635C-3.17527 106.074 -2.92765 106.671 -2.92765 107.292V113.542C-2.92765 114.164 -3.17527 114.76 -3.61603 115.199C-4.05679 115.639 -4.65459 115.886 -5.27791 115.886ZM-5.27791 103.386C-5.90124 103.386 -6.49904 103.139 -6.9398 102.699C-7.38056 102.26 -7.62817 101.664 -7.62817 101.042V94.7922C-7.62817 94.1706 -7.38056 93.5744 -6.9398 93.1349C-6.49904 92.6954 -5.90124 92.4484 -5.27791 92.4484C-4.65459 92.4484 -4.05679 92.6954 -3.61603 93.1349C-3.17527 93.5744 -2.92765 94.1706 -2.92765 94.7922V101.042C-2.92765 101.664 -3.17527 102.26 -3.61603 102.699C-4.05679 103.139 -4.65459 103.386 -5.27791 103.386ZM-5.27791 90.8859C-5.90124 90.8859 -6.49904 90.639 -6.9398 90.1995C-7.38056 89.7599 -7.62817 89.1638 -7.62817 88.5422V82.2922C-7.62817 81.6706 -7.38056 81.0744 -6.9398 80.6349C-6.49904 80.1954 -5.90124 79.9484 -5.27791 79.9484C-4.65459 79.9484 -4.05679 80.1954 -3.61603 80.6349C-3.17527 81.0744 -2.92765 81.6706 -2.92765 82.2922V88.5422C-2.92765 89.1638 -3.17527 89.7599 -3.61603 90.1995C-4.05679 90.639 -4.65459 90.8859 -5.27791 90.8859ZM-5.27791 78.3859C-5.90124 78.3859 -6.49904 78.139 -6.9398 77.6995C-7.38056 77.2599 -7.62817 76.6638 -7.62817 76.0422V69.7922C-7.62817 69.1706 -7.38056 68.5744 -6.9398 68.1349C-6.49904 67.6954 -5.90124 67.4484 -5.27791 67.4484C-4.65459 67.4484 -4.05679 67.6954 -3.61603 68.1349C-3.17527 68.5744 -2.92765 69.1706 -2.92765 69.7922V76.0422C-2.92765 76.6638 -3.17527 77.2599 -3.61603 77.6995C-4.05679 78.139 -4.65459 78.3859 -5.27791 78.3859ZM-5.27791 65.8859C-5.90124 65.8859 -6.49904 65.639 -6.9398 65.1995C-7.38056 64.7599 -7.62817 64.1638 -7.62817 63.5422V57.2922C-7.62817 56.6706 -7.38056 56.0744 -6.9398 55.6349C-6.49904 55.1954 -5.90124 54.9484 -5.27791 54.9484C-4.65459 54.9484 -4.05679 55.1954 -3.61603 55.6349C-3.17527 56.0744 -2.92765 56.6706 -2.92765 57.2922V63.5422C-2.92765 64.1638 -3.17527 64.7599 -3.61603 65.1995C-4.05679 65.639 -4.65459 65.8859 -5.27791 65.8859ZM-5.27791 53.3859C-5.90124 53.3859 -6.49904 53.139 -6.9398 52.6995C-7.38056 52.2599 -7.62817 51.6638 -7.62817 51.0422V44.7922C-7.62817 44.1706 -7.38056 43.5744 -6.9398 43.1349C-6.49904 42.6954 -5.90124 42.4484 -5.27791 42.4484C-4.65459 42.4484 -4.05679 42.6954 -3.61603 43.1349C-3.17527 43.5744 -2.92765 44.1706 -2.92765 44.7922V51.0422C-2.92765 51.6638 -3.17527 52.2599 -3.61603 52.6995C-4.05679 53.139 -4.65459 53.3859 -5.27791 53.3859ZM-5.27791 40.8859C-5.90124 40.8859 -6.49904 40.639 -6.9398 40.1995C-7.38056 39.7599 -7.62817 39.1638 -7.62817 38.5422V32.2922C-7.62817 31.6706 -7.38056 31.0744 -6.9398 30.6349C-6.49904 30.1954 -5.90124 29.9484 -5.27791 29.9484C-4.65459 29.9484 -4.05679 30.1954 -3.61603 30.6349C-3.17527 31.0744 -2.92765 31.6706 -2.92765 32.2922V38.5422C-2.92765 39.1638 -3.17527 39.7599 -3.61603 40.1995C-4.05679 40.639 -4.65459 40.8859 -5.27791 40.8859ZM52.3959 20.0266L48.4067 17.85C47.287 17.2419 46.367 16.3244 45.7572 15.2078L43.5746 11.2297C43.2716 10.6782 42.8255 10.2182 42.283 9.89768C41.7405 9.57721 41.1216 9.40811 40.4911 9.40811C39.8605 9.40811 39.2416 9.57721 38.6991 9.89768C38.1566 10.2182 37.7105 10.6782 37.4075 11.2297L35.2249 15.2094C34.6142 16.3254 33.6945 17.2426 32.5754 17.8516L28.5815 20.0281C28.0289 20.3304 27.5679 20.7752 27.2468 21.316C26.9257 21.8569 26.7563 22.4738 26.7563 23.1023C26.7563 23.7309 26.9257 24.3478 27.2468 24.8887C27.5679 25.4295 28.0289 25.8743 28.5815 26.1766L32.5722 28.3531C33.6913 28.9621 34.6111 29.8793 35.2218 30.9953L37.4044 34.9766C37.7076 35.528 38.1538 35.988 38.6965 36.3084C39.2391 36.6288 39.8581 36.7979 40.4887 36.7979C41.1193 36.7979 41.7383 36.6288 42.281 36.3084C42.8236 35.988 43.2698 35.528 43.573 34.9766L45.7541 30.9953C46.3653 29.8801 47.2849 28.9635 48.4036 28.3547L52.3928 26.1797C52.9461 25.8777 53.4079 25.4328 53.7295 24.8916C54.0511 24.3505 54.2208 23.733 54.2208 23.1039C54.2208 22.4748 54.0511 21.8573 53.7295 21.3162C53.4079 20.775 52.9461 20.3301 52.3928 20.0281L52.3959 20.0266ZM46.1505 24.2453C44.2424 25.2839 42.6738 26.8475 41.6317 28.75L40.4911 30.8328L39.3488 28.75C38.3087 26.8459 36.7411 25.2805 34.8332 24.2406L32.7446 23.1016L34.8332 21.9641C36.7411 20.925 38.3092 19.3608 39.3504 17.4578L40.4926 15.375L41.6333 17.4562C42.6746 19.3601 44.2433 20.9249 46.1521 21.9641L48.2391 23.1016L46.1505 24.2453ZM76.7869 37.6891L73.5906 35.9453C72.7724 35.4997 72.1001 34.8287 71.6539 34.0125L69.9053 30.8266C69.6228 30.3108 69.2062 29.8804 68.6994 29.5806C68.1925 29.2808 67.614 29.1226 67.0247 29.1226C66.4354 29.1226 65.8569 29.2808 65.3501 29.5806C64.8432 29.8804 64.4266 30.3108 64.1441 30.8266L62.3971 34.0109C61.9501 34.8275 61.2773 35.4989 60.4589 35.9453L57.2641 37.6875C56.749 37.971 56.3196 38.3871 56.0206 38.8923C55.7216 39.3975 55.5638 39.9735 55.5638 40.5602C55.5638 41.1468 55.7216 41.7228 56.0206 42.228C56.3196 42.7332 56.749 43.1493 57.2641 43.4328L60.4604 45.1766C61.2784 45.6217 61.9506 46.2921 62.3971 47.1078L64.1456 50.2937C64.4299 50.8074 64.8472 51.2356 65.3538 51.5338C65.8604 51.832 66.438 51.9893 67.0263 51.9893C67.6146 51.9893 68.1921 51.832 68.6988 51.5338C69.2054 51.2356 69.6226 50.8074 69.9069 50.2937L71.6555 47.1062C72.1011 46.29 72.7736 45.6194 73.5921 45.175L76.7869 43.4312C77.3041 43.1497 77.7358 42.7344 78.0365 42.2291C78.3372 41.7238 78.4959 41.147 78.4959 40.5594C78.4959 39.9717 78.3372 39.395 78.0365 38.8896C77.7358 38.3843 77.3041 37.9706 76.7869 37.6891ZM71.3343 41.0641C69.7275 41.9391 68.4065 43.2558 67.5285 44.8578L67.0255 45.7781L66.5194 44.8562C65.6415 43.2551 64.3211 41.9389 62.7151 41.0641L61.7923 40.5609L62.7151 40.0578C64.3212 39.1812 65.6419 37.8641 66.521 36.2625L67.0255 35.3422L67.5285 36.2609C68.4056 37.8644 69.7268 39.1824 71.3343 40.0578L72.2572 40.5594L71.3343 41.0641Z" fill="#86EF64"/>
<mask id="path-2-outside-1_25_6568" maskUnits="userSpaceOnUse" x="-104.602" y="55.7443" width="199" height="89" fill="black">
<rect fill="white" x="-104.602" y="55.7443" width="199" height="89"/>
<path d="M84.9565 63.7281C71.325 49.364 29.2177 60.0219 5.88274 70.1141C2.35873 71.6316 -1.43929 72.4145 -5.27786 72.4145C-9.11642 72.4145 -12.9144 71.6316 -16.4385 70.1141C-39.7734 60.0219 -81.8775 49.364 -95.5122 63.7281C-105.648 74.4109 -106.312 93.5812 -97.2028 109.566C-97.4864 117.102 -96.4523 125.375 -95.4793 127.691C-93.5129 132.412 -82.592 134.712 -75.8703 134.712C-75.2122 134.712 -74.5917 134.691 -74.0261 134.647C-72.7214 134.573 -71.4355 134.303 -70.2124 133.844C-66.2953 137.916 -55.6862 139.637 -48.59 139.637C-47.6249 139.637 -46.7255 139.605 -45.9154 139.544C-44.0226 139.458 -42.1584 139.051 -40.4033 138.339C-39.038 140.188 -37.0093 141.44 -34.7407 141.833C-29.3513 142.798 -23.8851 143.272 -18.4095 143.25C-15.9809 143.25 -13.5899 143.158 -11.3306 142.972C-9.10874 142.836 -6.9883 141.997 -5.27786 140.577C-3.56763 141.999 -1.4466 142.841 0.776405 142.978C3.03736 143.164 5.4268 143.255 7.85696 143.255C13.3325 143.277 18.7987 142.804 24.1881 141.839C26.4567 141.446 28.4854 140.194 29.8507 138.345C31.6059 139.057 33.4701 139.464 35.3629 139.55C36.1729 139.611 37.0723 139.644 38.0374 139.644C45.1368 139.644 55.7427 137.925 59.6598 133.85C60.8829 134.309 62.1688 134.58 63.4735 134.653C64.0392 134.697 64.6581 134.719 65.3177 134.719C72.0394 134.719 82.9603 132.419 84.9267 127.697C85.8934 125.375 86.9276 117.102 86.6502 109.572C95.7567 93.5812 95.0923 74.4109 84.9565 63.7281ZM-84.1056 129.041C-88.9064 127.914 -90.9245 126.434 -91.1485 125.895C-92.5133 122.614 -93.5881 105.147 -90.8352 100.439C-88.9769 97.2719 -85.2588 97.5984 -83.7452 97.8859C-81.044 98.5062 -78.5654 99.8542 -76.5797 101.783C-74.5939 103.712 -73.1773 106.147 -72.4843 108.823C-72.2935 109.618 -72.2442 110.439 -72.3386 111.25C-73.0004 117.342 -72.9178 123.492 -72.0926 129.564C-73.6438 130.136 -78.3239 130.4 -84.1009 129.044L-84.1056 129.041ZM-56.3913 134.316C-63.6662 133.139 -66.7325 131.109 -67.0756 130.312C-68.6565 126.65 -68.5234 106.825 -65.1954 100.525C-63.9419 98.1609 -60.1173 97.2047 -55.6643 98.1469C-49.6288 99.4234 -43.3254 104.039 -42.4167 111.533C-42.365 112.009 -42.3602 112.49 -42.4026 112.967C-42.8329 119.613 -42.8051 126.281 -42.3195 132.923C-42.2913 133.302 -42.2208 133.656 -42.1628 134.017C-43.6404 134.819 -49.0162 135.511 -56.3866 134.319L-56.3913 134.316ZM-8.44601 137.105C-9.35776 137.894 -10.5291 138.321 -11.7364 138.303C-19.1325 138.877 -26.5716 138.517 -33.8774 137.233C-34.9589 137.032 -35.9329 136.453 -36.6241 135.6C-37.3153 134.746 -37.6781 133.675 -37.6472 132.578C-37.9151 128.984 -38.6531 116.472 -36.9249 106.484C-36.613 104.044 -35.4031 101.806 -33.5298 100.205C-31.6565 98.6039 -29.2536 97.7541 -26.7874 97.8203C-22.873 97.7799 -19.0569 99.0426 -15.9431 101.408C-12.8293 103.774 -10.5958 107.108 -9.59607 110.883C-6.96535 122.052 -7.27245 134.57 -8.43504 137.108L-8.44601 137.105ZM27.0648 132.573C27.0954 133.67 26.7323 134.741 26.0412 135.594C25.3501 136.447 24.3762 137.026 23.295 137.227C15.9889 138.513 8.54904 138.872 1.15245 138.297C-0.0550156 138.314 -1.22647 137.887 -2.13792 137.097C-3.29894 134.561 -3.60604 122.042 -0.990982 110.881C-0.00909424 107.177 2.16084 103.895 5.1878 101.535C8.21476 99.1758 11.9326 97.8683 15.7742 97.8125H16.1926C18.6588 97.7463 21.0617 98.5961 22.9349 100.197C24.8082 101.798 26.0181 104.036 26.33 106.477C28.0817 116.475 27.3438 128.984 27.0758 132.583L27.0648 132.573ZM56.5136 130.312C56.1705 131.111 53.1057 133.141 45.8309 134.317C38.4668 135.511 33.0862 134.816 31.6087 134.017C32.1127 127.005 32.1917 119.969 31.8453 112.947C31.8056 112.479 31.8109 112.008 31.861 111.541C32.765 104.041 39.0684 99.4234 45.1102 98.1453C49.5694 97.2078 53.3972 98.1594 54.6412 100.523C57.9629 106.828 58.0961 126.653 56.5136 130.312ZM80.585 125.898C80.3609 126.437 78.3428 127.917 73.5342 129.044C67.7526 130.403 63.0755 130.137 61.5306 129.569C62.3582 123.495 62.4429 117.344 61.7829 111.25C61.6839 110.441 61.728 109.622 61.9129 108.828C62.606 106.152 64.0226 103.716 66.0083 101.788C67.994 99.8589 70.4726 98.5109 73.1738 97.8906C74.6843 97.6047 78.4055 97.275 80.2638 100.442C83.0277 105.156 81.9528 122.622 80.585 125.898ZM84.3219 98.075C81.9857 94.0906 77.4952 92.2937 72.2964 93.2844C67.2888 94.3575 62.8999 97.3393 60.0656 101.594C59.7487 100.473 59.3247 99.3853 58.7996 98.3453C56.5277 94.0375 50.7664 92.1578 44.1309 93.5656C38.4742 94.7337 33.4872 98.0324 30.2079 102.775C29.1976 99.9268 27.3177 97.4659 24.8325 95.7381C22.3473 94.0103 19.3817 93.1025 16.3524 93.1422C11.5248 93.0672 6.80369 94.5603 2.90178 97.3961C-1.00014 100.232 -3.87112 104.257 -5.27786 108.862C-6.67633 104.251 -9.54566 100.221 -13.4501 97.3834C-17.3546 94.5461 -22.0809 93.057 -26.9112 93.1422C-29.9405 93.1025 -32.9061 94.0103 -35.3913 95.7381C-37.8766 97.4659 -39.7564 99.9268 -40.7668 102.775C-44.046 98.0324 -49.033 94.7337 -54.6897 93.5656C-61.3269 92.1594 -67.0866 94.0344 -69.3585 98.3453C-69.8836 99.3853 -70.3075 100.473 -70.6245 101.594C-73.4582 97.3381 -77.8472 94.3552 -82.8552 93.2812C-88.0478 92.2953 -92.5446 94.0875 -94.8823 98.0734C-95.3923 98.9894 -95.786 99.9651 -96.0543 100.978C-100.794 88.4094 -99.445 74.7015 -92.0965 66.9515C-81.9386 56.2422 -45.8841 62.4891 -18.3077 74.4141C-14.1935 76.1859 -9.75935 77.0999 -5.27786 77.0999C-0.796371 77.0999 3.63777 76.1859 7.75198 74.4141C35.3284 62.4891 71.3845 56.2437 81.5408 66.9515C88.8955 74.7015 90.2383 88.4094 85.4986 100.981C85.2302 99.9676 84.836 98.9913 84.325 98.075H84.3219Z"/>
</mask>
<path d="M84.9565 63.7281C71.325 49.364 29.2177 60.0219 5.88274 70.1141C2.35873 71.6316 -1.43929 72.4145 -5.27786 72.4145C-9.11642 72.4145 -12.9144 71.6316 -16.4385 70.1141C-39.7734 60.0219 -81.8775 49.364 -95.5122 63.7281C-105.648 74.4109 -106.312 93.5812 -97.2028 109.566C-97.4864 117.102 -96.4523 125.375 -95.4793 127.691C-93.5129 132.412 -82.592 134.712 -75.8703 134.712C-75.2122 134.712 -74.5917 134.691 -74.0261 134.647C-72.7214 134.573 -71.4355 134.303 -70.2124 133.844C-66.2953 137.916 -55.6862 139.637 -48.59 139.637C-47.6249 139.637 -46.7255 139.605 -45.9154 139.544C-44.0226 139.458 -42.1584 139.051 -40.4033 138.339C-39.038 140.188 -37.0093 141.44 -34.7407 141.833C-29.3513 142.798 -23.8851 143.272 -18.4095 143.25C-15.9809 143.25 -13.5899 143.158 -11.3306 142.972C-9.10874 142.836 -6.9883 141.997 -5.27786 140.577C-3.56763 141.999 -1.4466 142.841 0.776405 142.978C3.03736 143.164 5.4268 143.255 7.85696 143.255C13.3325 143.277 18.7987 142.804 24.1881 141.839C26.4567 141.446 28.4854 140.194 29.8507 138.345C31.6059 139.057 33.4701 139.464 35.3629 139.55C36.1729 139.611 37.0723 139.644 38.0374 139.644C45.1368 139.644 55.7427 137.925 59.6598 133.85C60.8829 134.309 62.1688 134.58 63.4735 134.653C64.0392 134.697 64.6581 134.719 65.3177 134.719C72.0394 134.719 82.9603 132.419 84.9267 127.697C85.8934 125.375 86.9276 117.102 86.6502 109.572C95.7567 93.5812 95.0923 74.4109 84.9565 63.7281ZM-84.1056 129.041C-88.9064 127.914 -90.9245 126.434 -91.1485 125.895C-92.5133 122.614 -93.5881 105.147 -90.8352 100.439C-88.9769 97.2719 -85.2588 97.5984 -83.7452 97.8859C-81.044 98.5062 -78.5654 99.8542 -76.5797 101.783C-74.5939 103.712 -73.1773 106.147 -72.4843 108.823C-72.2935 109.618 -72.2442 110.439 -72.3386 111.25C-73.0004 117.342 -72.9178 123.492 -72.0926 129.564C-73.6438 130.136 -78.3239 130.4 -84.1009 129.044L-84.1056 129.041ZM-56.3913 134.316C-63.6662 133.139 -66.7325 131.109 -67.0756 130.312C-68.6565 126.65 -68.5234 106.825 -65.1954 100.525C-63.9419 98.1609 -60.1173 97.2047 -55.6643 98.1469C-49.6288 99.4234 -43.3254 104.039 -42.4167 111.533C-42.365 112.009 -42.3602 112.49 -42.4026 112.967C-42.8329 119.613 -42.8051 126.281 -42.3195 132.923C-42.2913 133.302 -42.2208 133.656 -42.1628 134.017C-43.6404 134.819 -49.0162 135.511 -56.3866 134.319L-56.3913 134.316ZM-8.44601 137.105C-9.35776 137.894 -10.5291 138.321 -11.7364 138.303C-19.1325 138.877 -26.5716 138.517 -33.8774 137.233C-34.9589 137.032 -35.9329 136.453 -36.6241 135.6C-37.3153 134.746 -37.6781 133.675 -37.6472 132.578C-37.9151 128.984 -38.6531 116.472 -36.9249 106.484C-36.613 104.044 -35.4031 101.806 -33.5298 100.205C-31.6565 98.6039 -29.2536 97.7541 -26.7874 97.8203C-22.873 97.7799 -19.0569 99.0426 -15.9431 101.408C-12.8293 103.774 -10.5958 107.108 -9.59607 110.883C-6.96535 122.052 -7.27245 134.57 -8.43504 137.108L-8.44601 137.105ZM27.0648 132.573C27.0954 133.67 26.7323 134.741 26.0412 135.594C25.3501 136.447 24.3762 137.026 23.295 137.227C15.9889 138.513 8.54904 138.872 1.15245 138.297C-0.0550156 138.314 -1.22647 137.887 -2.13792 137.097C-3.29894 134.561 -3.60604 122.042 -0.990982 110.881C-0.00909424 107.177 2.16084 103.895 5.1878 101.535C8.21476 99.1758 11.9326 97.8683 15.7742 97.8125H16.1926C18.6588 97.7463 21.0617 98.5961 22.9349 100.197C24.8082 101.798 26.0181 104.036 26.33 106.477C28.0817 116.475 27.3438 128.984 27.0758 132.583L27.0648 132.573ZM56.5136 130.312C56.1705 131.111 53.1057 133.141 45.8309 134.317C38.4668 135.511 33.0862 134.816 31.6087 134.017C32.1127 127.005 32.1917 119.969 31.8453 112.947C31.8056 112.479 31.8109 112.008 31.861 111.541C32.765 104.041 39.0684 99.4234 45.1102 98.1453C49.5694 97.2078 53.3972 98.1594 54.6412 100.523C57.9629 106.828 58.0961 126.653 56.5136 130.312ZM80.585 125.898C80.3609 126.437 78.3428 127.917 73.5342 129.044C67.7526 130.403 63.0755 130.137 61.5306 129.569C62.3582 123.495 62.4429 117.344 61.7829 111.25C61.6839 110.441 61.728 109.622 61.9129 108.828C62.606 106.152 64.0226 103.716 66.0083 101.788C67.994 99.8589 70.4726 98.5109 73.1738 97.8906C74.6843 97.6047 78.4055 97.275 80.2638 100.442C83.0277 105.156 81.9528 122.622 80.585 125.898ZM84.3219 98.075C81.9857 94.0906 77.4952 92.2937 72.2964 93.2844C67.2888 94.3575 62.8999 97.3393 60.0656 101.594C59.7487 100.473 59.3247 99.3853 58.7996 98.3453C56.5277 94.0375 50.7664 92.1578 44.1309 93.5656C38.4742 94.7337 33.4872 98.0324 30.2079 102.775C29.1976 99.9268 27.3177 97.4659 24.8325 95.7381C22.3473 94.0103 19.3817 93.1025 16.3524 93.1422C11.5248 93.0672 6.80369 94.5603 2.90178 97.3961C-1.00014 100.232 -3.87112 104.257 -5.27786 108.862C-6.67633 104.251 -9.54566 100.221 -13.4501 97.3834C-17.3546 94.5461 -22.0809 93.057 -26.9112 93.1422C-29.9405 93.1025 -32.9061 94.0103 -35.3913 95.7381C-37.8766 97.4659 -39.7564 99.9268 -40.7668 102.775C-44.046 98.0324 -49.033 94.7337 -54.6897 93.5656C-61.3269 92.1594 -67.0866 94.0344 -69.3585 98.3453C-69.8836 99.3853 -70.3075 100.473 -70.6245 101.594C-73.4582 97.3381 -77.8472 94.3552 -82.8552 93.2812C-88.0478 92.2953 -92.5446 94.0875 -94.8823 98.0734C-95.3923 98.9894 -95.786 99.9651 -96.0543 100.978C-100.794 88.4094 -99.445 74.7015 -92.0965 66.9515C-81.9386 56.2422 -45.8841 62.4891 -18.3077 74.4141C-14.1935 76.1859 -9.75935 77.0999 -5.27786 77.0999C-0.796371 77.0999 3.63777 76.1859 7.75198 74.4141C35.3284 62.4891 71.3845 56.2437 81.5408 66.9515C88.8955 74.7015 90.2383 88.4094 85.4986 100.981C85.2302 99.9676 84.836 98.9913 84.325 98.075H84.3219Z" fill="#86EF64"/>
<path d="M84.9565 63.7281C71.325 49.364 29.2177 60.0219 5.88274 70.1141C2.35873 71.6316 -1.43929 72.4145 -5.27786 72.4145C-9.11642 72.4145 -12.9144 71.6316 -16.4385 70.1141C-39.7734 60.0219 -81.8775 49.364 -95.5122 63.7281C-105.648 74.4109 -106.312 93.5812 -97.2028 109.566C-97.4864 117.102 -96.4523 125.375 -95.4793 127.691C-93.5129 132.412 -82.592 134.712 -75.8703 134.712C-75.2122 134.712 -74.5917 134.691 -74.0261 134.647C-72.7214 134.573 -71.4355 134.303 -70.2124 133.844C-66.2953 137.916 -55.6862 139.637 -48.59 139.637C-47.6249 139.637 -46.7255 139.605 -45.9154 139.544C-44.0226 139.458 -42.1584 139.051 -40.4033 138.339C-39.038 140.188 -37.0093 141.44 -34.7407 141.833C-29.3513 142.798 -23.8851 143.272 -18.4095 143.25C-15.9809 143.25 -13.5899 143.158 -11.3306 142.972C-9.10874 142.836 -6.9883 141.997 -5.27786 140.577C-3.56763 141.999 -1.4466 142.841 0.776405 142.978C3.03736 143.164 5.4268 143.255 7.85696 143.255C13.3325 143.277 18.7987 142.804 24.1881 141.839C26.4567 141.446 28.4854 140.194 29.8507 138.345C31.6059 139.057 33.4701 139.464 35.3629 139.55C36.1729 139.611 37.0723 139.644 38.0374 139.644C45.1368 139.644 55.7427 137.925 59.6598 133.85C60.8829 134.309 62.1688 134.58 63.4735 134.653C64.0392 134.697 64.6581 134.719 65.3177 134.719C72.0394 134.719 82.9603 132.419 84.9267 127.697C85.8934 125.375 86.9276 117.102 86.6502 109.572C95.7567 93.5812 95.0923 74.4109 84.9565 63.7281ZM-84.1056 129.041C-88.9064 127.914 -90.9245 126.434 -91.1485 125.895C-92.5133 122.614 -93.5881 105.147 -90.8352 100.439C-88.9769 97.2719 -85.2588 97.5984 -83.7452 97.8859C-81.044 98.5062 -78.5654 99.8542 -76.5797 101.783C-74.5939 103.712 -73.1773 106.147 -72.4843 108.823C-72.2935 109.618 -72.2442 110.439 -72.3386 111.25C-73.0004 117.342 -72.9178 123.492 -72.0926 129.564C-73.6438 130.136 -78.3239 130.4 -84.1009 129.044L-84.1056 129.041ZM-56.3913 134.316C-63.6662 133.139 -66.7325 131.109 -67.0756 130.312C-68.6565 126.65 -68.5234 106.825 -65.1954 100.525C-63.9419 98.1609 -60.1173 97.2047 -55.6643 98.1469C-49.6288 99.4234 -43.3254 104.039 -42.4167 111.533C-42.365 112.009 -42.3602 112.49 -42.4026 112.967C-42.8329 119.613 -42.8051 126.281 -42.3195 132.923C-42.2913 133.302 -42.2208 133.656 -42.1628 134.017C-43.6404 134.819 -49.0162 135.511 -56.3866 134.319L-56.3913 134.316ZM-8.44601 137.105C-9.35776 137.894 -10.5291 138.321 -11.7364 138.303C-19.1325 138.877 -26.5716 138.517 -33.8774 137.233C-34.9589 137.032 -35.9329 136.453 -36.6241 135.6C-37.3153 134.746 -37.6781 133.675 -37.6472 132.578C-37.9151 128.984 -38.6531 116.472 -36.9249 106.484C-36.613 104.044 -35.4031 101.806 -33.5298 100.205C-31.6565 98.6039 -29.2536 97.7541 -26.7874 97.8203C-22.873 97.7799 -19.0569 99.0426 -15.9431 101.408C-12.8293 103.774 -10.5958 107.108 -9.59607 110.883C-6.96535 122.052 -7.27245 134.57 -8.43504 137.108L-8.44601 137.105ZM27.0648 132.573C27.0954 133.67 26.7323 134.741 26.0412 135.594C25.3501 136.447 24.3762 137.026 23.295 137.227C15.9889 138.513 8.54904 138.872 1.15245 138.297C-0.0550156 138.314 -1.22647 137.887 -2.13792 137.097C-3.29894 134.561 -3.60604 122.042 -0.990982 110.881C-0.00909424 107.177 2.16084 103.895 5.1878 101.535C8.21476 99.1758 11.9326 97.8683 15.7742 97.8125H16.1926C18.6588 97.7463 21.0617 98.5961 22.9349 100.197C24.8082 101.798 26.0181 104.036 26.33 106.477C28.0817 116.475 27.3438 128.984 27.0758 132.583L27.0648 132.573ZM56.5136 130.312C56.1705 131.111 53.1057 133.141 45.8309 134.317C38.4668 135.511 33.0862 134.816 31.6087 134.017C32.1127 127.005 32.1917 119.969 31.8453 112.947C31.8056 112.479 31.8109 112.008 31.861 111.541C32.765 104.041 39.0684 99.4234 45.1102 98.1453C49.5694 97.2078 53.3972 98.1594 54.6412 100.523C57.9629 106.828 58.0961 126.653 56.5136 130.312ZM80.585 125.898C80.3609 126.437 78.3428 127.917 73.5342 129.044C67.7526 130.403 63.0755 130.137 61.5306 129.569C62.3582 123.495 62.4429 117.344 61.7829 111.25C61.6839 110.441 61.728 109.622 61.9129 108.828C62.606 106.152 64.0226 103.716 66.0083 101.788C67.994 99.8589 70.4726 98.5109 73.1738 97.8906C74.6843 97.6047 78.4055 97.275 80.2638 100.442C83.0277 105.156 81.9528 122.622 80.585 125.898ZM84.3219 98.075C81.9857 94.0906 77.4952 92.2937 72.2964 93.2844C67.2888 94.3575 62.8999 97.3393 60.0656 101.594C59.7487 100.473 59.3247 99.3853 58.7996 98.3453C56.5277 94.0375 50.7664 92.1578 44.1309 93.5656C38.4742 94.7337 33.4872 98.0324 30.2079 102.775C29.1976 99.9268 27.3177 97.4659 24.8325 95.7381C22.3473 94.0103 19.3817 93.1025 16.3524 93.1422C11.5248 93.0672 6.80369 94.5603 2.90178 97.3961C-1.00014 100.232 -3.87112 104.257 -5.27786 108.862C-6.67633 104.251 -9.54566 100.221 -13.4501 97.3834C-17.3546 94.5461 -22.0809 93.057 -26.9112 93.1422C-29.9405 93.1025 -32.9061 94.0103 -35.3913 95.7381C-37.8766 97.4659 -39.7564 99.9268 -40.7668 102.775C-44.046 98.0324 -49.033 94.7337 -54.6897 93.5656C-61.3269 92.1594 -67.0866 94.0344 -69.3585 98.3453C-69.8836 99.3853 -70.3075 100.473 -70.6245 101.594C-73.4582 97.3381 -77.8472 94.3552 -82.8552 93.2812C-88.0478 92.2953 -92.5446 94.0875 -94.8823 98.0734C-95.3923 98.9894 -95.786 99.9651 -96.0543 100.978C-100.794 88.4094 -99.445 74.7015 -92.0965 66.9515C-81.9386 56.2422 -45.8841 62.4891 -18.3077 74.4141C-14.1935 76.1859 -9.75935 77.0999 -5.27786 77.0999C-0.796371 77.0999 3.63777 76.1859 7.75198 74.4141C35.3284 62.4891 71.3845 56.2437 81.5408 66.9515C88.8955 74.7015 90.2383 88.4094 85.4986 100.981C85.2302 99.9676 84.836 98.9913 84.325 98.075H84.3219Z" stroke="#86EF64" stroke-width="2" mask="url(#path-2-outside-1_25_6568)"/>
</g>
<defs>
<clipPath id="clip0_25_6568">
<rect width="95" height="156" fill="white"/>
</clipPath>
</defs>
</svg>
