<svg width="126" height="131" viewBox="0 0 126 131" fill="none" xmlns="http://www.w3.org/2000/svg">
<g clip-path="url(#clip0_25_6578)">
<path d="M107.458 77.875H104.373C106.396 71.9016 107.438 65.6399 107.458 59.3333C107.458 33.7903 93.5965 18.5417 70.3749 18.5417C58.3629 18.874 46.6795 22.5382 36.6291 29.1252C26.9058 23.9595 15.4137 18.5417 3.62492 18.5417C-19.5967 18.5417 -33.4584 33.7903 -33.4584 59.3333C-33.438 65.6399 -32.3961 71.9016 -30.3731 77.875H-33.4584C-34.4419 77.875 -35.3852 78.2657 -36.0806 78.9611C-36.776 79.6566 -37.1667 80.5998 -37.1667 81.5833C-37.1667 82.5668 -36.776 83.5101 -36.0806 84.2055C-35.3852 84.901 -34.4419 85.2917 -33.4584 85.2917H-27.5251C-25.6079 89.6267 -23.42 93.7467 -21.2543 97.8073C-16.5221 105.587 -13.1077 114.094 -11.1491 122.987C-8.88852 135.94 -3.69828 148.205 4.02542 158.846C4.99329 160.304 5.87959 161.628 6.62125 162.855C7.36376 164.086 8.41277 165.104 9.66587 165.808C10.919 166.513 12.3333 166.88 13.7709 166.875C15.9967 166.872 18.1304 165.987 19.7043 164.413C21.2782 162.839 22.1636 160.705 22.1666 158.479V133.5C22.1666 129.566 23.7294 125.793 26.5112 123.011C29.293 120.229 33.0659 118.667 36.9999 118.667C40.934 118.667 44.7069 120.229 47.4887 123.011C50.2705 125.793 51.8333 129.566 51.8333 133.5V158.479C51.8362 160.705 52.7217 162.839 54.2955 164.413C55.8694 165.987 58.0032 166.872 60.2289 166.875C61.6667 166.881 63.0815 166.514 64.3348 165.81C65.5881 165.105 66.6369 164.087 67.3786 162.855C68.1203 161.628 69.014 160.304 69.9744 158.846C77.6952 148.204 82.884 135.939 85.1452 122.987C87.1056 114.095 90.5198 105.587 95.2504 97.8073C97.4457 93.7467 99.6151 89.6267 101.525 85.2917H107.458C108.442 85.2917 109.385 84.901 110.08 84.2055C110.776 83.5101 111.167 82.5668 111.167 81.5833C111.167 80.5998 110.776 79.6566 110.08 78.9611C109.385 78.2657 108.442 77.875 107.458 77.875ZM88.7163 94.3177C83.5981 102.8 79.9239 112.073 77.8435 121.759C75.7624 133.681 70.962 144.964 63.8149 154.73C62.7803 156.28 61.842 157.697 61.0447 158.991C60.9229 159.152 60.7553 159.272 60.5639 159.336C60.3725 159.4 60.1663 159.404 59.9723 159.349C59.7783 159.294 59.6055 159.181 59.4766 159.026C59.3477 158.871 59.2687 158.68 59.2499 158.479V133.5C59.2499 127.599 56.9057 121.94 52.733 117.767C48.5604 113.594 42.901 111.25 36.9999 111.25C31.0988 111.25 25.4395 113.594 21.2668 117.767C17.0941 121.94 14.7499 127.599 14.7499 133.5V158.479C14.7326 158.681 14.6543 158.874 14.5255 159.03C14.3966 159.187 14.2232 159.301 14.0282 159.356C13.8332 159.412 13.6258 159.408 13.4335 159.343C13.2412 159.279 13.0731 159.157 12.9514 158.995C12.1578 157.693 11.2196 156.284 10.1887 154.734C3.03861 144.969 -1.76325 133.686 -3.84367 121.763C-5.92407 112.077 -9.59831 102.804 -14.7165 94.3214C-16.3296 91.2954 -17.9057 88.314 -19.3593 85.2954H7.33325V89.0037C7.33325 92.9377 8.89605 96.7107 11.6778 99.4925C14.4596 102.274 18.2325 103.837 22.1666 103.837H51.8333C55.7673 103.837 59.5402 102.274 62.322 99.4925C65.1038 96.7107 66.6666 92.9377 66.6666 89.0037V85.2917H93.3666C91.8767 88.331 90.3263 91.3403 88.7163 94.3177ZM14.7499 89V74.1667C14.7499 72.1996 15.5313 70.3132 16.9222 68.9223C18.3131 67.5314 20.1996 66.75 22.1666 66.75H51.8333C53.8003 66.75 55.6867 67.5314 57.0776 68.9223C58.4685 70.3132 59.2499 72.1996 59.2499 74.1667V89C59.2499 90.967 58.4685 92.8535 57.0776 94.2444C55.6867 95.6353 53.8003 96.4167 51.8333 96.4167H22.1666C20.1996 96.4167 18.3131 95.6353 16.9222 94.2444C15.5313 92.8535 14.7499 90.967 14.7499 89ZM96.5706 77.875H66.6666V74.1667C66.6666 70.2326 65.1038 66.4597 62.322 63.6779C59.5402 60.8961 55.7673 59.3333 51.8333 59.3333H22.1666C18.2325 59.3333 14.4596 60.8961 11.6778 63.6779C8.89605 66.4597 7.33325 70.2326 7.33325 74.1667V77.875H-22.567C-24.8422 71.9569 -26.0197 65.6737 -26.0417 59.3333C-26.0417 38.1217 -15.2283 25.9583 3.62492 25.9583C15.2172 25.9583 27.3842 32.5369 37.1668 37.825C41.4834 40.3461 45.9962 42.5151 50.6614 44.3109C51.5957 44.6217 52.6153 44.5486 53.4957 44.1076C54.3762 43.6667 55.0454 42.8941 55.3562 41.9598C55.667 41.0254 55.5938 40.0059 55.1529 39.1255C54.712 38.245 53.9394 37.5758 53.0051 37.265C49.9943 36.1444 47.0756 34.7905 44.2757 33.2155C52.2503 28.6968 61.2123 26.2049 70.3749 25.9583C89.2281 25.9583 100.042 38.1217 100.042 59.3333C100.019 65.6733 98.8427 71.9562 96.5706 77.875Z" fill="#86EF64"/>
</g>
<defs>
<clipPath id="clip0_25_6578">
<path d="M0 0H126V131H20C8.9543 131 0 122.046 0 111V0Z" fill="white"/>
</clipPath>
</defs>
</svg>
