<svg xmlns="http://www.w3.org/2000/svg" width="26" height="26" fill="none"><g clip-path="url(#a)"><path fill="#fff" d="M22.8 0H3.1A3.3 3.3 0 0 0 0 3.3v19.4C0 24.6 1.5 26 3.3 26h19.4c1.8 0 3.3-1.5 3.3-3.3V3.4C26 1.4 24.5 0 22.7 0Z"/><path fill="#275D36" d="M22 13h-4.1V9.7c0-.8.7-.8 1.6-.8h1.6V5H18A4.9 4.9 0 0 0 13 9.7V13H9.7v4H13v9h4.9v-9h2.4l1.6-4Z"/></g><rect width="25.5" height="25.5" x=".3" y=".3" stroke="#EDEDED" stroke-width=".5" rx="5.8"/><defs><clipPath id="a"><rect width="26" height="26" fill="#fff" rx="6"/></clipPath></defs></svg>