<svg xmlns="http://www.w3.org/2000/svg" width="95" height="156" fill="none"><g clip-path="url(#a)"><path fill="#86EF64" d="M-5.3 178.4a2.4 2.4 0 0 1-2.3-2.4v-6.2a2.3 2.3 0 0 1 2.3-2.4 2.4 2.4 0 0 1 2.4 2.4v6.2a2.3 2.3 0 0 1-2.4 2.4Zm0-12.5a2.4 2.4 0 0 1-2.3-2.4v-6.2a2.3 2.3 0 0 1 2.3-2.4 2.4 2.4 0 0 1 2.4 2.4v6.2a2.3 2.3 0 0 1-2.4 2.4Zm0-12.5a2.4 2.4 0 0 1-2.3-2.4v-6.2a2.3 2.3 0 0 1 2.3-2.4 2.4 2.4 0 0 1 2.4 2.4v6.2a2.3 2.3 0 0 1-2.4 2.4Zm0-12.5a2.4 2.4 0 0 1-2.3-2.4v-6.2a2.3 2.3 0 0 1 2.3-2.4 2.4 2.4 0 0 1 2.4 2.4v6.2a2.3 2.3 0 0 1-2.4 2.4Zm0-12.5a2.4 2.4 0 0 1-2.3-2.4v-6.2a2.3 2.3 0 0 1 2.3-2.4 2.4 2.4 0 0 1 2.4 2.4v6.2a2.3 2.3 0 0 1-2.4 2.4Zm0-12.5a2.4 2.4 0 0 1-2.3-2.4v-6.2a2.3 2.3 0 0 1 2.3-2.4 2.4 2.4 0 0 1 2.4 2.4v6.2a2.3 2.3 0 0 1-2.4 2.4Zm0-12.5a2.4 2.4 0 0 1-2.3-2.4v-6.2a2.3 2.3 0 0 1 2.3-2.4 2.4 2.4 0 0 1 2.4 2.4v6.2a2.3 2.3 0 0 1-2.4 2.4Zm0-12.5a2.4 2.4 0 0 1-2.3-2.4v-6.2a2.3 2.3 0 0 1 2.3-2.4 2.4 2.4 0 0 1 2.4 2.4v6.2A2.3 2.3 0 0 1-5.3 91Zm0-12.5A2.4 2.4 0 0 1-7.6 76v-6.2a2.3 2.3 0 0 1 2.3-2.4 2.4 2.4 0 0 1 2.4 2.4V76a2.3 2.3 0 0 1-2.4 2.4Zm0-12.5a2.4 2.4 0 0 1-2.3-2.4v-6.2a2.3 2.3 0 0 1 2.3-2.4 2.4 2.4 0 0 1 2.4 2.4v6.2A2.3 2.3 0 0 1-5.3 66Zm0-12.5A2.4 2.4 0 0 1-7.6 51v-6.2a2.3 2.3 0 0 1 2.3-2.4 2.4 2.4 0 0 1 2.4 2.4V51a2.3 2.3 0 0 1-2.4 2.4Zm0-12.5a2.4 2.4 0 0 1-2.3-2.4v-6.2a2.3 2.3 0 0 1 2.3-2.4 2.4 2.4 0 0 1 2.4 2.4v6.2A2.3 2.3 0 0 1-5.3 41ZM52.4 20l-4-2.1c-1.1-.7-2-1.6-2.6-2.7l-2.2-4a3.5 3.5 0 0 0-6.2 0l-2.2 4c-.6 1.1-1.5 2-2.6 2.7l-4 2.1a3.5 3.5 0 0 0 0 6.2l4 2.2c1 .6 2 1.5 2.6 2.6l2.2 4a3.5 3.5 0 0 0 6.2 0l2.2-4c.6-1.1 1.5-2 2.6-2.6l4-2.2a3.5 3.5 0 0 0 0-6.2Zm-6.2 4.2c-2 1-3.5 2.6-4.6 4.6l-1.1 2-1.2-2c-1-2-2.6-3.5-4.5-4.6l-2-1.1 2-1.1c2-1 3.5-2.6 4.6-4.5l1-2.1 1.2 2c1 2 2.6 3.5 4.6 4.6l2 1.1-2 1.1Zm30.6 13.5-3.2-1.8a4.9 4.9 0 0 1-2-1.9L70 30.8a3.3 3.3 0 0 0-5.8 0L62.4 34c-.4.8-1.1 1.5-2 2l-3.1 1.7a3.3 3.3 0 0 0 0 5.7l3.2 1.8c.8.4 1.5 1 1.9 2l1.7 3a3.3 3.3 0 0 0 5.8 0l1.8-3c.4-1 1-1.6 1.9-2l3.2-1.8a3.3 3.3 0 0 0 0-5.7ZM71.3 41c-1.6.8-2.9 2.2-3.8 3.8l-.5.9-.5-1c-.9-1.5-2.2-2.9-3.8-3.7l-1-.5 1-.5c1.6-1 3-2.2 3.8-3.8l.5-1 .5 1c1 1.6 2.2 2.9 3.8 3.8l1 .5-1 .5Z"/><mask id="b" width="199" height="89" x="-104.6" y="55.7" fill="#000" maskUnits="userSpaceOnUse"><path fill="#fff" d="M-104.6 55.7h199v89h-199z"/><path d="M85 63.7C71.3 49.4 29.2 60 5.9 70.1a28.2 28.2 0 0 1-22.3 0c-23.4-10-65.5-20.7-79.1-6.4-10.1 10.7-10.8 29.9-1.7 45.9-.3 7.5.7 15.8 1.7 18 2 4.8 13 7.1 19.6 7.1h1.9a13 13 0 0 0 3.8-.9c3.9 4.1 14.5 5.8 21.6 5.8h2.7c1.9-.1 3.7-.5 5.5-1.3a9 9 0 0 0 5.7 3.5 90.6 90.6 0 0 0 23.4 1.2c2.2-.2 4.3-1 6-2.4 1.7 1.4 3.9 2.2 6 2.4a87 87 0 0 0 23.5-1.2 9 9 0 0 0 5.7-3.5c1.7.8 3.6 1.2 5.5 1.3H38c7.1 0 17.7-1.7 21.7-5.8 1.2.5 2.5.8 3.8.9h1.8c6.7 0 17.7-2.3 19.6-7 1-2.3 2-10.6 1.8-18.1 9-16 8.4-35.2-1.7-45.9ZM-84.1 129c-4.8-1-6.8-2.6-7-3.1-1.4-3.3-2.5-20.8.3-25.5 1.8-3.1 5.5-2.8 7-2.5a15.2 15.2 0 0 1 11.3 11c.2.7.3 1.5.2 2.3-.7 6.1-.6 12.3.2 18.4a26 26 0 0 1-12-.6Zm27.7 5.3c-7.3-1.2-10.3-3.2-10.7-4a63.3 63.3 0 0 1 1.9-29.8c1.3-2.3 5-3.3 9.5-2.4 6 1.3 12.4 6 13.3 13.4v1.5c-.4 6.6-.4 13.3 0 20l.2 1c-1.4.8-6.8 1.5-14.2.3Zm48 2.8a5 5 0 0 1-3.3 1.2c-7.4.6-14.9.2-22.2-1a4.6 4.6 0 0 1-3.7-4.7c-.3-3.6-1-16.1.7-26.1a10 10 0 0 1 10.1-8.7 17.6 17.6 0 0 1 17.2 13 63.9 63.9 0 0 1 1.2 26.3Zm35.5-4.5a4.6 4.6 0 0 1-3.8 4.6 88.3 88.3 0 0 1-22.1 1.1 5 5 0 0 1-3.3-1.2A64 64 0 0 1-1 110.9a17.6 17.6 0 0 1 16.8-13h.4a10 10 0 0 1 10.1 8.6c1.8 10 1 22.5.8 26Zm29.4-2.3c-.3.8-3.4 2.8-10.7 4-7.3 1.2-12.7.5-14.2-.3a174.2 174.2 0 0 0 .3-22.5c.9-7.5 7.2-12 13.2-13.4 4.5-.9 8.3 0 9.5 2.4a63.4 63.4 0 0 1 2 29.8Zm24-4.4c-.1.5-2.2 2-7 3.1a26 26 0 0 1-12 .6c.9-6.1 1-12.3.3-18.3a7 7 0 0 1 .1-2.5 15 15 0 0 1 11.3-11c1.5-.2 5.2-.5 7 2.6 2.8 4.8 1.8 22.2.4 25.5Zm3.8-27.8c-2.3-4-6.8-5.8-12-4.8-5 1-9.4 4-12.2 8.3l-1.3-3.3c-2.3-4.3-8-6.1-14.7-4.7a22.4 22.4 0 0 0-13.9 9.2A14.5 14.5 0 0 0 16.4 93 22.3 22.3 0 0 0-5.3 109 22.1 22.1 0 0 0-26.9 93a14.5 14.5 0 0 0-13.9 9.7c-3.2-4.8-8.2-8-13.9-9.2-6.6-1.4-12.4.4-14.7 4.7-.5 1-1 2.2-1.2 3.3A19.6 19.6 0 0 0-83 93.3c-5.1-1-9.6.8-12 4.8-.5.9-.9 1.9-1.2 2.9-4.7-12.6-3.3-26.3 4-34 10.2-10.8 46.2-4.5 73.8 7.4a33 33 0 0 0 26 0c27.6-12 63.7-18.2 73.8-7.4 7.4 7.7 8.7 21.4 4 34l-1.2-3Z"/></mask><path fill="#86EF64" d="M85 63.7C71.3 49.4 29.2 60 5.9 70.1a28.2 28.2 0 0 1-22.3 0c-23.4-10-65.5-20.7-79.1-6.4-10.1 10.7-10.8 29.9-1.7 45.9-.3 7.5.7 15.8 1.7 18 2 4.8 13 7.1 19.6 7.1h1.9a13 13 0 0 0 3.8-.9c3.9 4.1 14.5 5.8 21.6 5.8h2.7c1.9-.1 3.7-.5 5.5-1.3a9 9 0 0 0 5.7 3.5 90.6 90.6 0 0 0 23.4 1.2c2.2-.2 4.3-1 6-2.4 1.7 1.4 3.9 2.2 6 2.4a87 87 0 0 0 23.5-1.2 9 9 0 0 0 5.7-3.5c1.7.8 3.6 1.2 5.5 1.3H38c7.1 0 17.7-1.7 21.7-5.8 1.2.5 2.5.8 3.8.9h1.8c6.7 0 17.7-2.3 19.6-7 1-2.3 2-10.6 1.8-18.1 9-16 8.4-35.2-1.7-45.9ZM-84.1 129c-4.8-1-6.8-2.6-7-3.1-1.4-3.3-2.5-20.8.3-25.5 1.8-3.1 5.5-2.8 7-2.5a15.2 15.2 0 0 1 11.3 11c.2.7.3 1.5.2 2.3-.7 6.1-.6 12.3.2 18.4a26 26 0 0 1-12-.6Zm27.7 5.3c-7.3-1.2-10.3-3.2-10.7-4a63.3 63.3 0 0 1 1.9-29.8c1.3-2.3 5-3.3 9.5-2.4 6 1.3 12.4 6 13.3 13.4v1.5c-.4 6.6-.4 13.3 0 20l.2 1c-1.4.8-6.8 1.5-14.2.3Zm48 2.8a5 5 0 0 1-3.3 1.2c-7.4.6-14.9.2-22.2-1a4.6 4.6 0 0 1-3.7-4.7c-.3-3.6-1-16.1.7-26.1a10 10 0 0 1 10.1-8.7 17.6 17.6 0 0 1 17.2 13 63.9 63.9 0 0 1 1.2 26.3Zm35.5-4.5a4.6 4.6 0 0 1-3.8 4.6 88.3 88.3 0 0 1-22.1 1.1 5 5 0 0 1-3.3-1.2A64 64 0 0 1-1 110.9a17.6 17.6 0 0 1 16.8-13h.4a10 10 0 0 1 10.1 8.6c1.8 10 1 22.5.8 26Zm29.4-2.3c-.3.8-3.4 2.8-10.7 4-7.3 1.2-12.7.5-14.2-.3a174.2 174.2 0 0 0 .3-22.5c.9-7.5 7.2-12 13.2-13.4 4.5-.9 8.3 0 9.5 2.4a63.4 63.4 0 0 1 2 29.8Zm24-4.4c-.1.5-2.2 2-7 3.1a26 26 0 0 1-12 .6c.9-6.1 1-12.3.3-18.3a7 7 0 0 1 .1-2.5 15 15 0 0 1 11.3-11c1.5-.2 5.2-.5 7 2.6 2.8 4.8 1.8 22.2.4 25.5Zm3.8-27.8c-2.3-4-6.8-5.8-12-4.8-5 1-9.4 4-12.2 8.3l-1.3-3.3c-2.3-4.3-8-6.1-14.7-4.7a22.4 22.4 0 0 0-13.9 9.2A14.5 14.5 0 0 0 16.4 93 22.3 22.3 0 0 0-5.3 109 22.1 22.1 0 0 0-26.9 93a14.5 14.5 0 0 0-13.9 9.7c-3.2-4.8-8.2-8-13.9-9.2-6.6-1.4-12.4.4-14.7 4.7-.5 1-1 2.2-1.2 3.3A19.6 19.6 0 0 0-83 93.3c-5.1-1-9.6.8-12 4.8-.5.9-.9 1.9-1.2 2.9-4.7-12.6-3.3-26.3 4-34 10.2-10.8 46.2-4.5 73.8 7.4a33 33 0 0 0 26 0c27.6-12 63.7-18.2 73.8-7.4 7.4 7.7 8.7 21.4 4 34l-1.2-3Z"/><path stroke="#86EF64" stroke-width="2" d="M85 63.7C71.3 49.4 29.2 60 5.9 70.1a28.2 28.2 0 0 1-22.3 0c-23.4-10-65.5-20.7-79.1-6.4-10.1 10.7-10.8 29.9-1.7 45.9-.3 7.5.7 15.8 1.7 18 2 4.8 13 7.1 19.6 7.1h1.9a13 13 0 0 0 3.8-.9c3.9 4.1 14.5 5.8 21.6 5.8h2.7c1.9-.1 3.7-.5 5.5-1.3a9 9 0 0 0 5.7 3.5 90.6 90.6 0 0 0 23.4 1.2c2.2-.2 4.3-1 6-2.4 1.7 1.4 3.9 2.2 6 2.4a87 87 0 0 0 23.5-1.2 9 9 0 0 0 5.7-3.5c1.7.8 3.6 1.2 5.5 1.3H38c7.1 0 17.7-1.7 21.7-5.8 1.2.5 2.5.8 3.8.9h1.8c6.7 0 17.7-2.3 19.6-7 1-2.3 2-10.6 1.8-18.1 9-16 8.4-35.2-1.7-45.9ZM-84.1 129c-4.8-1-6.8-2.6-7-3.1-1.4-3.3-2.5-20.8.3-25.5 1.8-3.1 5.5-2.8 7-2.5a15.2 15.2 0 0 1 11.3 11c.2.7.3 1.5.2 2.3-.7 6.1-.6 12.3.2 18.4a26 26 0 0 1-12-.6Zm27.7 5.3c-7.3-1.2-10.3-3.2-10.7-4a63.3 63.3 0 0 1 1.9-29.8c1.3-2.3 5-3.3 9.5-2.4 6 1.3 12.4 6 13.3 13.4v1.5c-.4 6.6-.4 13.3 0 20l.2 1c-1.4.8-6.8 1.5-14.2.3Zm48 2.8a5 5 0 0 1-3.3 1.2c-7.4.6-14.9.2-22.2-1a4.6 4.6 0 0 1-3.7-4.7c-.3-3.6-1-16.1.7-26.1a10 10 0 0 1 10.1-8.7 17.6 17.6 0 0 1 17.2 13 63.9 63.9 0 0 1 1.2 26.3Zm35.5-4.5a4.6 4.6 0 0 1-3.8 4.6 88.3 88.3 0 0 1-22.1 1.1 5 5 0 0 1-3.3-1.2A64 64 0 0 1-1 110.9a17.6 17.6 0 0 1 16.8-13h.4a10 10 0 0 1 10.1 8.6c1.8 10 1 22.5.8 26Zm29.4-2.3c-.3.8-3.4 2.8-10.7 4-7.3 1.2-12.7.5-14.2-.3a174.2 174.2 0 0 0 .3-22.5c.9-7.5 7.2-12 13.2-13.4 4.5-.9 8.3 0 9.5 2.4a63.4 63.4 0 0 1 2 29.8Zm24-4.4c-.1.5-2.2 2-7 3.1a26 26 0 0 1-12 .6c.9-6.1 1-12.3.3-18.3a7 7 0 0 1 .1-2.5 15 15 0 0 1 11.3-11c1.5-.2 5.2-.5 7 2.6 2.8 4.8 1.8 22.2.4 25.5Zm3.8-27.8c-2.3-4-6.8-5.8-12-4.8-5 1-9.4 4-12.2 8.3l-1.3-3.3c-2.3-4.3-8-6.1-14.7-4.7a22.4 22.4 0 0 0-13.9 9.2A14.5 14.5 0 0 0 16.4 93 22.3 22.3 0 0 0-5.3 109 22.1 22.1 0 0 0-26.9 93a14.5 14.5 0 0 0-13.9 9.7c-3.2-4.8-8.2-8-13.9-9.2-6.6-1.4-12.4.4-14.7 4.7-.5 1-1 2.2-1.2 3.3A19.6 19.6 0 0 0-83 93.3c-5.1-1-9.6.8-12 4.8-.5.9-.9 1.9-1.2 2.9-4.7-12.6-3.3-26.3 4-34 10.2-10.8 46.2-4.5 73.8 7.4a33 33 0 0 0 26 0c27.6-12 63.7-18.2 73.8-7.4 7.4 7.7 8.7 21.4 4 34l-1.2-3Z" mask="url(#b)"/></g><defs><clipPath id="a"><path fill="#fff" d="M0 0h95v156H0z"/></clipPath></defs></svg>