<?xml version="1.0" standalone="no"?>
<!DOCTYPE svg PUBLIC "-//W3C//DTD SVG 20010904//EN"
 "http://www.w3.org/TR/2001/REC-SVG-20010904/DTD/svg10.dtd">
<svg version="1.0" xmlns="http://www.w3.org/2000/svg"
 width="185.000000pt" height="103.000000pt" viewBox="0 0 185.000000 103.000000"
 preserveAspectRatio="xMidYMid meet">

<g transform="translate(0.000000,103.000000) scale(0.100000,-0.100000)"
fill="#000000" stroke="none">
<path d="M1481 630 c-30 -38 -63 -73 -74 -76 -21 -7 -67 31 -95 79 -9 15 -22
27 -29 27 -26 0 -11 -26 37 -65 41 -33 49 -45 47 -70 -1 -23 -7 -31 -24 -33
-19 -3 -23 1 -23 22 0 14 6 26 13 26 8 0 9 3 1 8 -6 4 -14 14 -17 22 -3 8 -6
-6 -6 -32 -1 -33 4 -50 14 -56 13 -7 5 -17 -40 -53 -59 -47 -64 -56 -39 -66 9
-3 21 3 30 16 9 12 32 41 52 64 33 37 41 42 75 39 29 -3 44 -11 69 -43 17 -21
37 -39 45 -39 22 0 15 11 -27 47 -32 28 -40 41 -40 68 0 18 -5 35 -12 37 -6 2
17 28 53 58 60 50 78 79 54 87 -5 1 -35 -29 -64 -67z m-41 -115 c0 -21 -5 -25
-30 -25 -25 0 -30 4 -30 25 0 21 5 25 30 25 25 0 30 -4 30 -25z"/>
<path d="M1205 540 c-11 -17 5 -30 36 -30 16 0 29 -5 29 -11 0 -7 -13 -10 -34
-7 -19 2 -32 0 -30 -4 3 -4 21 -8 40 -8 27 0 34 4 34 20 0 15 -7 20 -29 20
-17 0 -33 5 -37 11 -5 8 4 10 30 7 20 -2 36 0 36 4 0 12 -68 10 -75 -2z"/>
<path d="M1470 515 c0 -19 5 -35 10 -35 6 0 10 14 10 30 0 23 5 30 19 30 15 0
21 -8 24 -32 l4 -33 1 33 c2 24 7 32 21 32 15 0 21 -8 24 -32 4 -32 4 -32 5 5
l2 37 -60 0 -60 0 0 -35z"/>
<path d="M1174 241 c3 -5 -4 -11 -15 -14 -28 -8 -19 -32 12 -33 22 -1 25 3 21
28 -2 15 -9 28 -14 28 -5 0 -7 -4 -4 -9z m6 -31 c0 -5 -7 -10 -15 -10 -8 0
-15 5 -15 10 0 6 7 10 15 10 8 0 15 -4 15 -10z"/>
<path d="M1211 218 c2 -31 2 -31 6 -5 2 15 10 27 18 27 8 0 16 -12 18 -27 4
-26 4 -26 6 5 1 28 -2 32 -24 32 -22 0 -25 -4 -24 -32z"/>
<path d="M1281 223 c-1 -38 1 -40 20 -16 8 9 9 14 2 10 -7 -5 -13 1 -16 15 -3
17 -5 14 -6 -9z"/>
<path d="M1317 243 c-2 -5 -1 -19 4 -33 7 -23 7 -23 8 8 1 31 -3 40 -12 25z"/>
<path d="M1354 235 c-10 -24 4 -45 28 -44 l23 2 -24 4 c-18 4 -22 10 -18 29 5
27 -1 32 -9 9z"/>
<path d="M1449 242 c11 -8 10 -11 -5 -15 -15 -4 -16 -5 -2 -6 9 0 19 -9 22
-18 2 -10 4 -5 3 11 -1 17 -9 31 -17 33 -12 4 -13 3 -1 -5z"/>
<path d="M1486 242 c7 -4 14 -18 17 -32 l4 -25 2 27 c0 14 7 29 14 31 6 3 -1
6 -18 6 -16 0 -25 -3 -19 -7z"/>
<path d="M1540 222 c0 -29 3 -33 22 -30 28 4 35 26 11 35 -10 3 -21 11 -25 17
-4 6 -8 -4 -8 -22z m40 -12 c0 -5 -7 -10 -15 -10 -8 0 -15 5 -15 10 0 6 7 10
15 10 8 0 15 -4 15 -10z"/>
<path d="M1604 235 c-10 -24 4 -45 28 -44 l23 2 -24 4 c-18 4 -22 10 -18 29 5
27 -1 32 -9 9z"/>
<path d="M1672 219 c1 -20 4 -26 10 -17 6 10 10 10 18 -2 7 -11 9 -6 9 20 -1
19 -3 27 -6 18 -2 -10 -9 -18 -15 -18 -5 0 -8 7 -4 15 3 8 1 15 -4 15 -5 0 -8
-14 -8 -31z"/>
<path d="M1110 233 c18 -9 11 -31 -12 -36 -20 -5 -20 -5 2 -4 17 2 25 8 25 21
0 11 -6 20 -13 22 -7 1 -8 0 -2 -3z"/>
<path d="M1418 198 c5 -5 16 -8 23 -6 8 3 3 7 -10 11 -17 4 -21 3 -13 -5z"/>
<path d="M1132 100 c0 -19 2 -27 5 -17 2 9 13 17 23 17 10 0 21 -8 23 -17 3
-10 5 -2 5 17 0 19 -2 29 -5 23 -2 -7 -13 -13 -23 -13 -10 0 -21 6 -23 13 -3
6 -5 -4 -5 -23z"/>
<path d="M1234 121 c4 -5 0 -12 -6 -14 -10 -4 -10 -6 0 -6 6 -1 12 -5 12 -11
0 -13 -27 -13 -33 0 -3 6 -4 5 -3 -2 1 -7 14 -13 27 -14 22 -1 25 3 21 28 -2
15 -9 28 -14 28 -5 0 -7 -4 -4 -9z"/>
<path d="M1301 98 c2 -31 2 -31 6 -5 2 15 10 27 18 27 8 0 16 -12 18 -27 4
-26 4 -26 6 5 1 28 -2 32 -24 32 -22 0 -25 -4 -24 -32z"/>
<path d="M1372 88 l1 -43 4 38 c3 29 9 37 24 37 23 0 27 -36 4 -43 -11 -4 -10
-4 2 -3 12 1 18 10 18 26 0 20 -6 26 -27 28 -27 3 -28 2 -26 -40z"/>
<path d="M1472 107 c-12 -13 -22 -27 -22 -32 0 -5 8 2 17 15 l17 24 7 -24 c6
-23 7 -22 8 8 1 17 0 32 -2 32 -2 0 -13 -10 -25 -23z"/>
<path d="M1516 114 c-11 -29 33 -60 48 -35 4 5 -4 7 -15 4 -19 -5 -21 -3 -17
20 6 29 -6 37 -16 11z"/>
<path d="M1556 115 c4 -8 11 -15 16 -15 6 0 5 6 -2 15 -7 8 -14 15 -16 15 -2
0 -1 -7 2 -15z"/>
<path d="M1590 101 c0 -17 2 -31 4 -31 8 0 13 51 5 56 -5 3 -9 -9 -9 -25z"/>
<path d="M1628 110 c-10 -11 -13 -22 -9 -25 5 -2 12 3 16 13 7 15 9 14 15 -8
8 -23 8 -23 9 8 1 36 -6 39 -31 12z"/>
</g>
</svg>
