<svg xmlns="http://www.w3.org/2000/svg" width="26" height="26" fill="none"><g fill="#30BC57" clip-path="url(#a)"><path d="m18.2 9.2-6.6 5.4-.3.3-.1.2v.5l-.3 1.7h-.1l-.6-1.6-.5-1.7a.3.3 0 0 1 .2-.4l6.8-4L18 9c.2 0 .4.2.2.3Z"/><path d="M22.5 0h-19A3.5 3.5 0 0 0 0 3.5v19A3.5 3.5 0 0 0 3.5 26h19a3.5 3.5 0 0 0 3.5-3.5v-19A3.5 3.5 0 0 0 22.5 0ZM21 7.5l-2.5 11.2c-.1.6-.8.8-1.3.5l-3.8-2.6-2 1.8a.7.7 0 0 1-1-.2l-.8-2L9 14l-3.7-1a.5.5 0 0 1 0-1l14.5-5.3h.3c.5-.3 1.1.2 1 .7Z"/></g><defs><clipPath id="a"><rect width="26" height="26" fill="#fff" rx="6"/></clipPath></defs></svg>