<svg xmlns="http://www.w3.org/2000/svg" width="35" height="35" fill="none"><path fill="url(#a)" d="M6.9 25.8a8.5 8.5 0 0 1-2.4-6.3c0-5 3.7-9.6 8.8-12l1.3 2c-4.8 2.6-5.8 6-6.1 8.1.7-.4 1.7-.5 2.7-.4a5 5 0 0 1 4.7 5.1c0 1.3-.6 2.6-1.5 3.7-1 1-2.1 1.4-3.6 1.4-1.6 0-3-.7-4-1.6Zm14.5 0a8.5 8.5 0 0 1-2.3-6.3c0-5 3.7-9.6 8.8-12l1.3 2c-4.8 2.6-5.9 6-6.2 8.1.8-.4 1.8-.5 2.8-.4 2.6.3 4.7 2.5 4.7 5.1 0 1.3-.6 2.6-1.5 3.7-1 1-2.2 1.4-3.6 1.4-1.6 0-3-.7-4-1.6Z" opacity=".5"/><defs><linearGradient id="a" x1="12.4" x2="12.4" y1="-8.2" y2="39.4" gradientUnits="userSpaceOnUse"><stop stop-color="#24A363"/><stop offset="1" stop-color="#4BDD48"/></linearGradient></defs></svg>