<svg xmlns="http://www.w3.org/2000/svg" width="26" height="26" fill="none"><g clip-path="url(#a)"><path fill="" d="M24.2 1.8C22.4 0 19.4 0 13.5 0h-1c-6 0-8.9 0-10.7 1.8C0 3.6 0 6.6 0 12.5v1c0 6 0 8.9 1.8 10.7C3.6 26 6.6 26 12.5 26h1c6 0 8.9 0 10.7-1.8C26 22.4 26 19.4 26 13.5v-1c0-6 0-8.9-1.8-10.7Zm-3 16.6h-2c-.7 0-.9-.6-2.2-1.8-1.1-1.1-1.6-1.3-1.9-1.3-.4 0-.5.1-.5.7v1.7c0 .4-.1.7-1.3.7-2 0-4.2-1.2-5.8-3.5-2.4-3.2-3-5.7-3-6.2 0-.3.1-.6.6-.6h2c.4 0 .6.2.8.8 1 2.7 2.5 5 3.1 5 .3 0 .4 0 .4-.7v-2.8c0-1.3-.8-1.4-.8-1.8 0-.3.2-.5.5-.5h3c.4 0 .5.2.5.7v3.8c0 .4.2.5.3.5.3 0 .5-.1 1-.6 1.2-1.4 2-3.5 2.2-3.8.2-.3.4-.6.9-.6h1.9c.5 0 .7.3.5.7-.2 1-2 3.6-2.4 4.2l-.2.3c-.1.3-.2.4 0 .7l1.4 1.4c.8 1 1.4 1.7 1.6 2.2.1.5-.1.8-.7.8Z"/></g><defs><clipPath id="a"><rect width="26" height="26" fill="" rx="6"/></clipPath></defs></svg>