<svg xmlns="http://www.w3.org/2000/svg" width="26" height="26" fill="none"><g clip-path="url(#a)"><path fill="" d="M22.5 0h-19C1.5 0 0 1.6 0 3.5v19c0 2 1.6 3.5 3.5 3.5h19c2 0 3.5-1.6 3.5-3.5v-19c0-2-1.6-3.5-3.5-3.5Z"/><path fill="" d="M18.7 7.3a8 8 0 0 0-12.9 9.3L5 20.7a.3.3 0 0 0 0 .3.3.3 0 0 0 .3.1l4.1-1a8 8 0 0 0 9.3-12.8Zm-1.2 10.1a6.3 6.3 0 0 1-7.3 1.2l-.6-.3-2.5.6.6-2.6-.3-.5a6.3 6.3 0 1 1 10 1.6Z"/><path fill="" d="M17.2 15.6c-.3.4-.7 1-1.4 1.2-1 .2-2.7 0-4.7-2-1.8-1.6-2.3-3-2.1-4 0-.7.5-1.2 1-1.6a.6.6 0 0 1 .9.2l.6 1.5a.6.6 0 0 1 0 .6l-.4.4a.6.6 0 0 0 0 .6c.2.4.6.8 1.1 1.3.6.5 1.2 1 1.6 1.1a.6.6 0 0 0 .6-.1l.4-.4a.6.6 0 0 1 .5-.2l1.6.5a.6.6 0 0 1 .3.9Z"/></g><defs><clipPath id="a"><rect width="26" height="26" fill="" rx="6"/></clipPath></defs></svg>