<svg width="32" height="45" viewBox="0 0 32 45" fill="none" xmlns="http://www.w3.org/2000/svg">
<g id="Frame" clip-path="url(#clip0_20_6284)">
<g id="Group">
<path id="Vector" d="M28.8767 9.52955C19.9267 10.4044 3.12335 13.321 3.59023 18.097L4.26477 24.9974C4.29515 25.2988 4.40427 25.5869 4.58118 25.8329C4.75809 26.0788 4.99658 26.2738 5.27269 26.3985L5.38046 27.5009C5.52014 28.9298 6.79187 29.9751 8.22085 29.8354L9.24227 29.7355C9.46909 30.221 9.84039 30.6245 10.3053 30.8908C10.7703 31.1571 11.3062 31.2732 11.8397 31.2232L14.4274 30.9703C14.873 30.9243 15.2988 30.7626 15.6624 30.5012C15.9306 30.8476 16.2821 31.1204 16.6842 31.2943C17.0863 31.4682 17.5259 31.5374 17.962 31.4956L21.4121 31.1584C21.8577 31.1121 22.2834 30.9504 22.6474 30.6892C22.9155 31.0356 23.267 31.3085 23.669 31.4823C24.0711 31.6561 24.5106 31.7253 24.9466 31.6834L29.2595 31.2618C29.898 31.1973 30.4895 30.8974 30.9188 30.4205C31.4324 30.8052 32.0708 30.985 32.7096 30.9247L37.0225 30.5031C37.4584 30.4597 37.8762 30.3067 38.237 30.0583C38.5978 29.8099 38.8898 29.4742 39.0857 29.0824C39.4934 29.2681 39.9424 29.3443 40.3884 29.3035L43.8386 28.9662C44.2746 28.9227 44.6924 28.7696 45.0532 28.5211C45.414 28.2726 45.706 27.9368 45.9021 27.545C46.3094 27.7312 46.7584 27.8075 47.2044 27.7662L49.7922 27.5133C50.3253 27.459 50.8286 27.2413 51.2332 26.8899C51.6377 26.5386 51.9239 26.0709 52.0524 25.5507L53.0738 25.4508C54.5028 25.3112 55.548 24.0395 55.4083 22.6105L55.3006 21.5081C55.5473 21.3323 55.7435 21.0948 55.8695 20.8192C55.9954 20.5437 56.0466 20.2399 56.0181 19.9383L55.3435 13.038C54.8767 8.2619 37.8266 8.65465 28.8767 9.52955ZM29.0453 11.2546C44.6722 9.72701 53.4752 11.7401 53.6185 13.2066L54.1182 18.3187C53.662 17.9797 53.0938 17.8273 52.5291 17.8924C51.9741 17.9482 51.4522 18.1826 51.0418 18.5604C50.6844 18.0524 50.194 17.6526 49.6243 17.4051C49.0546 17.1576 48.4277 17.0718 47.8125 17.1573C47.2292 17.2155 46.6646 17.3949 46.1546 17.6839C45.6446 17.9729 45.2006 18.3652 44.851 18.8357C44.4495 18.3049 43.9126 17.892 43.2966 17.6402C42.6806 17.3885 42.0082 17.3071 41.3499 17.4047C40.6734 17.4708 40.0193 17.6827 39.4325 18.0257C38.8457 18.3687 38.3402 18.8347 37.9507 19.3917C37.5139 18.7811 36.9168 18.303 36.2254 18.0104C35.534 17.7178 34.7752 17.6219 34.0327 17.7334C33.1782 17.8176 32.3579 18.1121 31.6449 18.5906C30.9319 19.069 30.3484 19.7166 29.9467 20.4755C29.4055 19.8088 28.7077 19.2865 27.9156 18.9551C27.1234 18.6238 26.2616 18.4937 25.4069 18.5766C24.656 18.6109 23.9293 18.8522 23.3071 19.274C22.6849 19.6957 22.1915 20.2814 21.8815 20.9662C21.3915 20.495 20.8052 20.1356 20.163 19.9127C19.5208 19.6898 18.8379 19.6088 18.1613 19.6751C17.4975 19.7067 16.8544 19.9163 16.2995 20.2818C15.7445 20.6474 15.298 21.1555 15.0069 21.7529C14.5729 21.36 14.0617 21.0619 13.506 20.8777C12.9503 20.6934 12.3623 20.6271 11.7795 20.6828C11.1588 20.7178 10.5598 20.9232 10.0483 21.2765C9.53687 21.6299 9.13273 22.1174 8.88037 22.6855C8.40484 22.3944 7.84769 22.2655 7.29264 22.3181C6.72618 22.3624 6.19784 22.6207 5.81501 23.0406L5.31527 17.9284C5.17193 16.462 13.4184 12.7822 29.0453 11.2546ZM7.10561 27.3323L6.8807 25.0315C6.8656 24.8771 6.8229 24.102 7.46092 24.0396C8.1305 24.083 8.65086 24.6397 8.64951 25.3107L8.91495 28.026L8.05222 28.1103C7.82353 28.1327 7.59533 28.0632 7.41781 27.9173C7.24029 27.7714 7.12799 27.561 7.10561 27.3323ZM14.2588 29.2451L11.671 29.4981C11.4423 29.5205 11.2141 29.4511 11.0366 29.3052C10.859 29.1592 10.7467 28.9488 10.7243 28.7201L10.3027 24.4072C10.2632 24.1655 10.2756 23.9183 10.3393 23.6818C10.4029 23.4454 10.5163 23.2253 10.6718 23.0361C10.8272 22.847 11.0213 22.6931 11.2409 22.5848C11.4605 22.4765 11.7006 22.4163 11.9454 22.4081C13.3212 22.2753 14.5452 23.2813 14.6808 24.6569L15.0368 28.2985C15.0834 28.7746 14.7349 29.1986 14.2588 29.2451ZM21.2435 29.4333L17.7933 29.7706C17.5645 29.7929 17.3362 29.7235 17.1586 29.5775C16.981 29.4315 16.8687 29.221 16.8463 28.9922L16.3404 23.817C16.2976 23.5251 16.3164 23.2275 16.3954 22.9432C16.4744 22.659 16.612 22.3945 16.7993 22.1665C16.9866 21.9386 17.2195 21.7524 17.4831 21.6198C17.7466 21.4872 18.035 21.4112 18.3296 21.3966C19.97 21.2383 21.429 22.4378 21.591 24.0778L22.0219 28.4863C22.033 28.5996 22.0217 28.7139 21.9885 28.8229C21.9554 28.9318 21.9012 29.0331 21.8289 29.121C21.7566 29.209 21.6677 29.2818 21.5673 29.3354C21.4668 29.389 21.3568 29.4223 21.2435 29.4333ZM29.0908 29.5369L24.778 29.9585C24.5493 29.9808 24.321 29.9114 24.1435 29.7655C23.9659 29.6196 23.8536 29.4091 23.8313 29.1804L23.2411 23.1424C23.1908 22.7998 23.2128 22.4505 23.3055 22.1169C23.3982 21.7833 23.5597 21.4728 23.7795 21.2053C23.9994 20.9378 24.2727 20.7192 24.582 20.5636C24.8913 20.408 25.2297 20.3187 25.5755 20.3016C27.4811 20.1153 29.1768 21.5095 29.363 23.4149L29.8689 28.5903C29.9155 29.0664 29.5671 29.4902 29.0909 29.5368L29.0908 29.5369ZM37.632 27.8313C37.6786 28.3075 37.3302 28.7315 36.8539 28.778L32.541 29.1996C32.3123 29.2219 32.0841 29.1525 31.9066 29.0066C31.7291 28.8606 31.6168 28.6502 31.5945 28.4215L31.0886 23.2463C30.9023 21.3408 32.2958 19.6447 34.2014 19.4584C34.544 19.4082 34.8933 19.4302 35.2268 19.523C35.5604 19.6158 35.8709 19.7773 36.1384 19.9972C36.4059 20.2171 36.6244 20.4904 36.78 20.7998C36.9356 21.1091 37.0247 21.4475 37.0418 21.7933L37.632 27.8313ZM44.4485 26.294C44.4708 26.5228 44.4014 26.7511 44.2554 26.9287C44.1094 27.1064 43.8988 27.2187 43.67 27.2411L40.2198 27.5783C40.1065 27.5894 39.9921 27.5781 39.8832 27.545C39.7743 27.5118 39.673 27.4576 39.585 27.3853C39.4971 27.313 39.4242 27.2241 39.3707 27.1237C39.3171 27.0233 39.2838 26.9132 39.2727 26.7999L38.8418 22.3915C38.6831 20.7511 39.8821 19.2918 41.5221 19.1294C41.814 19.0867 42.1116 19.1054 42.3959 19.1845C42.6801 19.2635 42.9447 19.4011 43.1726 19.5884C43.4005 19.7758 43.5867 20.0087 43.7193 20.2722C43.8519 20.5358 43.9279 20.8241 43.9425 21.1188L44.4485 26.294ZM50.4017 24.8415C50.4483 25.3176 50.0999 25.7415 49.6236 25.7881L47.0358 26.0411C46.8071 26.0634 46.5789 25.994 46.4014 25.8481C46.2239 25.7022 46.1116 25.4917 46.0892 25.263L45.7332 21.6214C45.5999 20.2456 46.606 19.0216 47.9814 18.8855C48.2231 18.8461 48.4704 18.8587 48.7068 18.9224C48.9433 18.9861 49.1634 19.0995 49.3525 19.2549C49.5417 19.4104 49.6956 19.6044 49.8038 19.824C49.912 20.0437 49.9721 20.2839 49.9801 20.5286L50.4017 24.8415ZM53.6832 22.7792C53.7297 23.2553 53.3813 23.6791 52.9053 23.7257L52.0424 23.81L51.777 21.0948C51.6457 20.4367 52.0488 19.7894 52.6978 19.6176C53.3362 19.5552 53.4432 20.3239 53.4583 20.4784L53.6832 22.7792ZM6.60162 39.9931L7.25291 46.6557C7.70593 51.29 24.1881 50.9153 32.8396 50.0696C41.4911 49.2239 57.7338 46.3996 57.2808 41.7653L56.6295 35.1027C56.5986 34.7972 56.4855 34.5058 56.3022 34.2595C56.1188 34.0132 55.8721 33.8212 55.5883 33.704C55.5952 33.5592 55.5924 33.414 55.5797 33.2696L55.4331 31.7696C55.2951 30.3743 54.0533 29.3541 52.6578 29.4893L52.5389 29.5009C52.2026 29.534 51.8763 29.6341 51.5792 29.7952C51.2821 29.9562 51.0202 30.1751 50.809 30.4389C50.1199 29.8766 49.2363 29.6096 48.351 29.6962L47.316 29.7974C46.8161 29.8472 46.3337 30.0081 45.904 30.2683C45.4742 30.5284 45.108 30.8813 44.8321 31.3011C44.3359 31.097 43.7978 31.0159 43.2635 31.0646L41.3624 31.2504C40.7831 31.3085 40.2287 31.5158 39.7535 31.8522C39.2783 32.1886 38.8985 32.6425 38.6512 33.1696C38.0065 32.7293 37.228 32.5282 36.4506 32.601L33.6836 32.8715C33.2101 32.9187 32.7521 33.0661 32.34 33.3038C31.9279 33.5416 31.5711 33.8643 31.2932 34.2505C30.9458 33.9254 30.5332 33.678 30.0829 33.5246C29.6325 33.3711 29.1546 33.3153 28.681 33.3607L25.9206 33.6306C25.1439 33.7096 24.4194 34.0577 23.8723 34.6145C23.5276 34.1453 23.067 33.7735 22.5357 33.5355C22.0043 33.2975 21.4203 33.2014 20.8407 33.2566L18.936 33.4428C18.4024 33.4984 17.8901 33.6822 17.4429 33.9786C17.0904 33.6198 16.6622 33.3444 16.1896 33.1724C15.717 33.0004 15.2119 32.9363 14.7113 32.9847L13.6763 33.0859C12.791 33.1721 11.9758 33.6052 11.4088 34.2905C11.1504 34.0727 10.8511 33.9087 10.5284 33.8082C10.2058 33.7077 9.86629 33.6727 9.52992 33.7053L9.41105 33.7169C8.01578 33.8549 6.9955 35.096 7.12988 36.4915L7.27624 37.9887C7.29198 38.1331 7.31709 38.2761 7.35199 38.417C7.09593 38.5872 6.89088 38.8237 6.75873 39.1013C6.62658 39.3789 6.57228 39.6872 6.60163 39.9932L6.60162 39.9931ZM51.9829 32.1067C51.9404 31.6637 52.2646 31.2701 52.7076 31.2259L52.8264 31.2143C53.0392 31.1939 53.2515 31.2586 53.4167 31.3942C53.5819 31.5299 53.6866 31.7255 53.708 31.9382L53.8543 33.4354C53.8695 33.5911 53.913 34.366 53.2745 34.4285C52.6047 34.3856 52.0839 33.8285 52.0856 33.1575L51.9829 32.1067ZM47.4847 31.5225L48.5197 31.4213C49.4247 31.3329 50.2303 31.9948 50.3188 32.9001L50.6439 36.2251C50.678 36.4617 50.6608 36.7029 50.5935 36.9323C50.5261 37.1617 50.4101 37.3739 50.2534 37.5544C50.0967 37.735 49.903 37.8797 49.6854 37.9787C49.4678 38.0777 49.2314 38.1287 48.9923 38.1282L48.8718 38.1399C48.3185 38.1961 47.7634 38.0512 47.3081 37.7319L46.9527 34.0962C46.8881 33.4531 46.6388 32.8424 46.2347 32.3379C46.3632 32.1124 46.5436 31.9208 46.761 31.7789C46.9784 31.6371 47.2265 31.5492 47.4847 31.5225ZM40.0523 34.7743C39.9638 33.8693 40.6261 33.0639 41.5311 32.9755L43.4287 32.79C44.3337 32.7015 45.1394 33.3634 45.2279 34.2683L45.635 38.4328C45.6714 38.7188 45.6472 39.0092 45.5638 39.2852C45.4804 39.5611 45.3397 39.8164 45.1509 40.0343C44.9622 40.2522 44.7296 40.4278 44.4684 40.5497C44.2071 40.6716 43.9231 40.7371 43.6349 40.7418L43.5029 40.7547C41.937 40.9034 40.5452 39.7599 40.3867 38.1953L40.0519 34.7707L40.0523 34.7743ZM33.8523 34.5966L36.6127 34.3268C37.5177 34.2383 38.323 34.9003 38.4115 35.8057L38.9 40.8032C38.9437 41.2502 39.0602 42.4422 36.4728 42.6951L36.3243 42.7097C35.89 42.7515 35.4517 42.7075 35.0344 42.5799C34.6172 42.4524 34.2291 42.2439 33.8924 41.9664C33.5556 41.689 33.2768 41.3478 33.072 40.9625C32.8673 40.5772 32.7405 40.1553 32.6989 39.7209L32.3736 36.3923C32.2868 35.4883 32.9485 34.685 33.8523 34.5966ZM26.0893 35.3555L28.8496 35.0857C29.7546 34.9972 30.5598 35.6592 30.6484 36.5645L30.9734 39.8896C31.1492 41.7123 29.8169 43.3334 27.9945 43.5132L27.846 43.5277C25.2585 43.7807 25.1423 42.5922 25.0983 42.142L24.6105 37.1512C24.5241 36.2471 25.1855 35.4439 26.0893 35.3555ZM21.0093 34.9815C21.9144 34.8931 22.7196 35.555 22.8081 36.4599L23.1429 39.8845C23.2889 41.4519 22.1409 42.8425 20.5742 42.996L20.4423 43.0089C20.1583 43.0603 19.8667 43.0511 19.5865 42.9819C19.3063 42.9127 19.044 42.7851 18.8165 42.6074C18.5891 42.4298 18.4017 42.2061 18.2666 41.9511C18.1315 41.6961 18.0517 41.4154 18.0325 41.1274L17.6254 36.9629C17.537 36.058 18.1993 35.2526 19.1043 35.1642L21.0093 34.9815ZM13.8517 34.8102L14.887 34.709C15.1451 34.685 15.4053 34.7227 15.6459 34.8191C15.8866 34.9155 16.1008 35.0678 16.271 35.2634C15.9722 35.8367 15.8459 36.4842 15.9072 37.1277L16.2625 40.7623C15.8786 41.1657 15.3621 41.4172 14.8077 41.4705L14.6869 41.4824C14.452 41.5303 14.2094 41.527 13.9759 41.4726C13.7424 41.4181 13.5234 41.3139 13.3338 41.1669C13.1443 41.02 12.9888 40.8339 12.8779 40.6213C12.767 40.4086 12.7033 40.1746 12.6913 39.9351L12.3658 36.6058C12.2798 35.7021 12.9416 34.8992 13.845 34.8109L13.8517 34.8102ZM8.85501 36.3227C8.83448 36.1099 8.89925 35.8975 9.03511 35.7324C9.17098 35.5672 9.36683 35.4627 9.57966 35.4418L9.69854 35.4302C9.91141 35.4094 10.1238 35.474 10.2891 35.6097C10.4544 35.7454 10.5591 35.9412 10.5801 36.1541L10.6828 37.2047C10.8144 37.8628 10.4117 38.5097 9.76322 38.6818C9.12479 38.7443 9.01615 37.9712 9.00137 37.8199L8.85501 36.3227ZM9.93185 40.407C10.2958 40.3702 10.6475 40.255 10.9628 40.0695L10.9662 40.1038C11.002 40.5686 11.1331 41.0209 11.3511 41.4329C11.5691 41.8449 11.8695 42.2076 12.2335 42.4987C12.5976 42.7897 13.0176 43.0028 13.4675 43.1247C13.9174 43.2467 14.3875 43.2748 14.8487 43.2075L14.9692 43.1957C15.5713 43.1339 16.1522 42.9398 16.6704 42.6271C17.3603 44.1358 18.973 44.9981 20.6109 44.734L20.7428 44.7211C21.8403 44.6095 22.8598 44.1028 23.6115 43.2955C24.03 44.344 25.1367 45.5361 28.0148 45.2548L28.1633 45.2403C28.9855 45.1599 29.7754 44.879 30.4637 44.4222C31.152 43.9655 31.7178 43.3468 32.1114 42.6205C32.6381 43.2572 33.3129 43.7549 34.0767 44.07C34.8406 44.3851 35.67 44.5079 36.4924 44.4276L36.6408 44.4131C39.5224 44.1314 40.3738 42.7483 40.5813 41.6386C41.4754 42.2843 42.5736 42.5832 43.6716 42.4797L43.8035 42.4668C45.4613 42.4101 46.8765 41.2524 47.2617 39.639C47.8305 39.8458 48.4381 39.9239 49.0407 39.8677L49.1612 39.8559C50.1026 39.809 50.9816 39.3739 51.5897 38.6539C51.8905 38.2979 52.1149 37.8839 52.249 37.4375C52.3831 36.9912 52.424 36.522 52.3693 36.0592L52.3654 36.0194C52.7107 36.1411 53.0784 36.1863 53.443 36.1516C54.0094 36.107 54.5375 35.8481 54.9196 35.4276L55.5556 41.934C55.6928 43.3372 47.7399 46.8715 32.671 48.3445C17.6021 49.8176 9.11523 47.8903 8.97806 46.4871L8.30946 39.9533C8.76998 40.3111 9.35251 40.474 9.93185 40.407Z" fill="url(#paint0_linear_20_6284)"/>
</g>
</g>
<defs>
<linearGradient id="paint0_linear_20_6284" x1="46.0935" y1="81.3643" x2="36.5898" y2="-15.8567" gradientUnits="userSpaceOnUse">
<stop stop-color="#24A363"/>
<stop offset="1" stop-color="#4BDD48"/>
</linearGradient>
<clipPath id="clip0_20_6284">
<rect width="57" height="52" fill="white" transform="translate(0 -4)"/>
</clipPath>
</defs>
</svg>
