<svg xmlns="http://www.w3.org/2000/svg" width="30" height="31" fill="none"><g clip-path="url(#a)"><path fill="url(#b)" d="M23.7 19a3 3 0 0 0-2.1-.9 3 3 0 0 0-2.2 1l-2 2-.5-.3-.6-.3a21.7 21.7 0 0 1-7-7.5c.6-.4 1-1 1.5-1.4l.6-.5c1.3-1.4 1.3-3.1 0-4.4L9.6 4.9l-.5-.6-1.2-1.1a3 3 0 0 0-2.2-1c-.7 0-1.5.4-2.1 1L1.4 5.4C.6 6.2.1 7 0 8.3 0 10 .4 11.9 1 13a29.8 29.8 0 0 0 14.8 15.8 15.5 15.5 0 0 0 5.9 1.7c1.5 0 2.7-.5 3.6-1.6l1.2-1.1.8-.9c.6-.6 1-1.4 1-2.2a3 3 0 0 0-1-2.1L23.7 19Zm2.3 6.8-.8.7-1.2 1.3a3 3 0 0 1-2.4 1h-.3c-1.9-.1-3.6-.9-5-1.5A28.1 28.1 0 0 1 2.6 12.4a9 9 0 0 1-.7-4c0-.7.3-1.3.8-1.8l2.2-2.2c.3-.3.6-.5 1-.5s.7.3.9.5l1.1 1.1.6.7 1.8 1.7c.6.7.6 1.3 0 2l-.6.5L8 11.9c-.5.6-.4 1.1-.3 1.5.4 1.2 1 2.2 2 3.4 1.8 2.2 3.6 3.8 5.7 5.1l.7.4.7.4.7.2c.5 0 .8-.3 1-.5l2.1-2.1c.2-.2.6-.5 1-.5.3 0 .7.3.9.5l3.5 3.5c.6.6.6 1.3 0 2ZM16.2 7.6a8 8 0 0 1 6.6 6.6c.1.5.5.8.9.8h.1c.5-.1.8-.6.7-1a9.8 9.8 0 0 0-8-8c-.5-.1-.9.2-1 .6 0 .5.2 1 .7 1ZM30 13.7A16 16 0 0 0 16.7.5a.9.9 0 1 0-.2 1.7A14.4 14.4 0 0 1 28.3 14c0 .4.4.7.8.7h.2c.4 0 .7-.5.7-1Z"/></g><defs><linearGradient id="b" x1="20.8" x2="20.8" y1="54.4" y2="-17.6" gradientUnits="userSpaceOnUse"><stop stop-color="#24A363"/><stop offset="1" stop-color="#4BDD48"/></linearGradient><clipPath id="a"><path fill="#fff" d="M0 .5h30v30H0z"/></clipPath></defs></svg>