<svg width="31" height="34" viewBox="0 0 31 34" fill="none" xmlns="http://www.w3.org/2000/svg">
<g id="Frame" clip-path="url(#clip0_20_6274)">
<g id="Group">
<path id="Vector" d="M8.486 4.10661C8.45658 3.93263 8.37373 3.77211 8.24896 3.64734C8.12419 3.52257 7.96367 3.43972 7.78969 3.4103C7.1141 3.29742 6.49063 2.97636 6.00637 2.49194C5.52211 2.00753 5.20124 1.38396 5.08858 0.708338C5.05509 0.510304 4.95255 0.330527 4.79915 0.200888C4.64574 0.0712481 4.45139 0.00012207 4.25054 0.00012207C4.04969 0.00012207 3.85534 0.0712481 3.70193 0.200888C3.54853 0.330527 3.44599 0.510304 3.4125 0.708338C3.29985 1.38397 2.97899 2.00755 2.49472 2.49196C2.01046 2.97638 1.38699 3.29744 0.71139 3.4103C0.513356 3.44379 0.333579 3.54633 0.203939 3.69973C0.0742998 3.85313 0.00317383 4.04749 0.00317383 4.24834C0.00317383 4.44918 0.0742998 4.64354 0.203939 4.79695C0.333579 4.95035 0.513356 5.05289 0.71139 5.08638C1.38698 5.19925 2.01045 5.52032 2.49471 6.00473C2.97897 6.48915 3.29984 7.11271 3.4125 7.78834C3.44599 7.98637 3.54853 8.16615 3.70193 8.29579C3.85534 8.42543 4.04969 8.49655 4.25054 8.49655C4.45139 8.49655 4.64574 8.42543 4.79915 8.29579C4.95255 8.16615 5.05509 7.98637 5.08858 7.78834C5.20124 7.11271 5.52211 6.48915 6.00637 6.00473C6.49063 5.52032 7.1141 5.19925 7.78969 5.08638C7.89974 5.06777 8.00505 5.02766 8.0996 4.96835C8.19416 4.90904 8.2761 4.83169 8.34076 4.74071C8.40542 4.64973 8.45153 4.5469 8.47645 4.4381C8.50137 4.32931 8.50461 4.21666 8.486 4.10661ZM4.25054 5.46205C3.91913 4.9904 3.50848 4.57975 3.03683 4.24834C3.50848 3.91692 3.91913 3.50628 4.25054 3.03462C4.58195 3.50628 4.9926 3.91692 5.46425 4.24834C4.9926 4.57975 4.58195 4.9904 4.25054 5.46205ZM33.7655 5.09743C32.1216 5.09729 30.4947 5.43128 28.9838 6.07911C27.882 6.54848 26.6967 6.79043 25.499 6.79043C24.3014 6.79043 23.1161 6.54848 22.0143 6.07911C15.8556 3.43866 8.7226 6.29074 6.08216 12.4494C5.43438 13.9604 5.10039 15.5872 5.10048 17.2312C5.09881 22.2366 6.50552 27.1415 9.15979 31.3852L9.40287 31.7753L13.0729 47.9242C13.5556 50.051 15.671 51.3838 17.7977 50.9011C18.5626 50.7275 19.2585 50.3301 19.7966 49.7595C20.3347 49.1889 20.6908 48.471 20.8193 47.6973L23.3691 32.4034C23.5664 31.2266 24.6803 30.4326 25.8572 30.6299C26.3006 30.7043 26.7097 30.9151 27.0276 31.233C27.3455 31.5509 27.5563 31.9601 27.6307 32.4034L30.1805 47.6964C30.5394 49.848 32.5745 51.3013 34.7261 50.9425C35.4992 50.8136 36.2164 50.4576 36.7865 49.9198C37.3567 49.382 37.7539 48.6867 37.9277 47.9225L41.5969 31.7736L41.84 31.3835C44.4934 27.1401 45.8995 22.2359 45.8976 17.2312C45.898 10.5303 40.4663 5.09796 33.7655 5.09743ZM40.3968 30.4851L40.0772 30.9951C40.0271 31.0759 39.9904 31.1643 39.9684 31.2569L36.2686 47.5434C35.9931 48.755 34.7876 49.5139 33.576 49.2384C33.1407 49.1395 32.7447 48.9132 32.4384 48.5886C32.132 48.2639 31.9292 47.8554 31.8557 47.4151L29.3059 32.1221C28.9549 30.0197 26.9659 28.5998 24.8634 28.9509C24.0703 29.0833 23.3384 29.4601 22.7699 30.0286C22.2013 30.5971 21.8246 31.3291 21.6922 32.1221L19.1423 47.4159C18.9393 48.6412 17.7813 49.47 16.556 49.2669C16.115 49.1938 15.7058 48.991 15.3806 48.6843C15.0555 48.3777 14.829 47.9811 14.7303 47.5451L11.0297 31.2577C11.0077 31.1652 10.971 31.0768 10.9209 30.9959L10.6013 30.486C8.11619 26.5117 6.79906 21.9185 6.80036 17.2312C6.80695 11.4719 11.4741 6.80474 17.2334 6.79816C18.6466 6.79665 20.0452 7.08355 21.3437 7.6413C22.6573 8.20177 24.0708 8.4907 25.499 8.4907C26.9273 8.4907 28.3407 8.20177 29.6544 7.6413C34.9511 5.37175 41.0848 7.82563 43.3544 13.1223C43.9107 14.4207 44.1976 15.8186 44.1977 17.2312C44.1988 21.9182 42.8817 26.511 40.3968 30.4851Z" fill="url(#paint0_linear_20_6274)"/>
<path id="Vector_2" d="M14.4507 11.0479L14.2807 10.215C12.5808 10.5558 9.35107 12.4121 9.35107 16.9975H11.051C11.051 12.6875 14.4762 11.9115 14.6207 11.88L14.4507 11.0479ZM16.1506 10.198H17.8505V11.8979H16.1506V10.198ZM50.9839 39.8042C50.9545 39.6302 50.8716 39.4697 50.7468 39.3449C50.6221 39.2201 50.4616 39.1373 50.2876 39.1078C49.612 38.995 48.9885 38.6739 48.5043 38.1895C48.02 37.7051 47.6991 37.0815 47.5865 36.4059C47.553 36.2079 47.4504 36.0281 47.297 35.8984C47.1436 35.7688 46.9493 35.6977 46.7484 35.6977C46.5476 35.6977 46.3532 35.7688 46.1998 35.8984C46.0464 36.0281 45.9439 36.2079 45.9104 36.4059C45.7977 37.0815 45.4769 37.7051 44.9926 38.1895C44.5083 38.6739 43.8849 38.995 43.2093 39.1078C43.0112 39.1413 42.8315 39.2439 42.7018 39.3973C42.5722 39.5507 42.5011 39.745 42.5011 39.9459C42.5011 40.1467 42.5722 40.3411 42.7018 40.4945C42.8315 40.6479 43.0112 40.7504 43.2093 40.7839C43.8849 40.8968 44.5083 41.2179 44.9926 41.7023C45.4769 42.1867 45.7977 42.8103 45.9104 43.4859C45.9439 43.6839 46.0464 43.8637 46.1998 43.9933C46.3532 44.123 46.5476 44.1941 46.7484 44.1941C46.9493 44.1941 47.1436 44.123 47.297 43.9933C47.4504 43.8637 47.553 43.6839 47.5865 43.4859C47.6991 42.8103 48.02 42.1867 48.5043 41.7023C48.9885 41.2179 49.612 40.8968 50.2876 40.7839C50.3976 40.7653 50.5029 40.7252 50.5975 40.6659C50.692 40.6066 50.774 40.5292 50.8386 40.4383C50.9033 40.3473 50.9494 40.2445 50.9743 40.1357C50.9993 40.0269 51.0025 39.9142 50.9839 39.8042ZM46.7484 41.1596C46.417 40.688 46.0064 40.2773 45.5347 39.9459C46.0064 39.6145 46.417 39.2038 46.7484 38.7322C47.0798 39.2038 47.4905 39.6145 47.9621 39.9459C47.4905 40.2773 47.0798 40.688 46.7484 41.1596Z" fill="url(#paint1_linear_20_6274)"/>
</g>
</g>
<defs>
<linearGradient id="paint0_linear_20_6274" x1="31.9054" y1="91.6108" x2="31.9054" y2="-30.6942" gradientUnits="userSpaceOnUse">
<stop stop-color="#24A363"/>
<stop offset="1" stop-color="#4BDD48"/>
</linearGradient>
<linearGradient id="paint1_linear_20_6274" x1="38.2992" y1="71.2651" x2="38.2992" y2="-10.2626" gradientUnits="userSpaceOnUse">
<stop stop-color="#24A363"/>
<stop offset="1" stop-color="#4BDD48"/>
</linearGradient>
<clipPath id="clip0_20_6274">
<rect width="51" height="51" fill="white"/>
</clipPath>
</defs>
</svg>
