<svg width="23" height="23" viewBox="0 0 23 23" fill="none" xmlns="http://www.w3.org/2000/svg">
<g clip-path="url(#clip0_6_1006)">
<path d="M7.51205 19.343C7.58766 19.42 7.67785 19.4812 7.77736 19.5229C7.87687 19.5647 7.9837 19.5862 8.09162 19.5862C8.19953 19.5862 8.30637 19.5647 8.40588 19.5229C8.50539 19.4812 8.59558 19.42 8.67118 19.343C8.82173 19.19 8.9061 18.9839 8.9061 18.7693C8.9061 18.5546 8.82173 18.3486 8.67118 18.1955L2.79373 12.3181L22.1885 12.3181C22.2953 12.3186 22.4011 12.2979 22.4998 12.2572C22.5985 12.2166 22.6882 12.1568 22.7637 12.0812C22.8391 12.0057 22.8989 11.916 22.9394 11.8172C22.98 11.7185 23.0006 11.6127 23 11.5059C23 11.0538 22.6406 10.6827 22.1885 10.6827L2.79373 10.6827L8.67119 4.81625C8.98452 4.49195 8.98452 3.96973 8.67119 3.65712C8.59558 3.58011 8.50539 3.51894 8.40588 3.47719C8.30637 3.43543 8.19954 3.41393 8.09162 3.41393C7.9837 3.41393 7.87687 3.43543 7.77736 3.47719C7.67785 3.51894 7.58766 3.58011 7.51206 3.65712L0.243209 10.926C0.166274 11.0004 0.105098 11.0896 0.0633171 11.1881C0.0215366 11.2867 6.43835e-06 11.3926 6.42899e-06 11.4997C6.41963e-06 11.6067 0.0215366 11.7127 0.063317 11.8113C0.105097 11.9098 0.166274 11.999 0.243209 12.0734L7.51205 19.343Z" fill="white"/>
</g>
<defs>
<clipPath id="clip0_6_1006">
<rect width="23" height="23" fill="white" transform="translate(23 23) rotate(-180)"/>
</clipPath>
</defs>
</svg>
