<svg xmlns="http://www.w3.org/2000/svg" width="30" height="30" fill="none"><g clip-path="url(#a)"><path fill="url(#b)" d="M25.6 4.4A15 15 0 1 0 4.4 25.7 15 15 0 0 0 25.6 4.4ZM5.7 24.3A13.1 13.1 0 1 1 24.3 5.7 13.1 13.1 0 0 1 5.7 24.3ZM21 20.9a1 1 0 0 1-1.3 0L15 16.3 10.4 21a1 1 0 0 1-1.3-1.3l4.6-4.6L9 10.4a1 1 0 0 1 1.3-1.3l4.6 4.6L19.6 9a1 1 0 1 1 1.3 1.3L16.3 15l4.6 4.6c.3.3.3 1 0 1.3Z"/></g><defs><linearGradient id="b" x1="-8.4" x2="42.5" y1="46.6" y2="-4.2" gradientUnits="userSpaceOnUse"><stop stop-color="#24A363"/><stop offset="1" stop-color="#4BDD48"/></linearGradient><clipPath id="a"><path fill="#fff" d="M0 0h30v30H0z"/></clipPath></defs></svg>