<?xml version="1.0" encoding="UTF-8"?>
<!DOCTYPE svg PUBLIC "-//W3C//DTD SVG 1.1//EN" "http://www.w3.org/Graphics/SVG/1.1/DTD/svg11.dtd">
<svg xmlns="http://www.w3.org/2000/svg" version="1.1" viewBox="0 0 408 110" style="shape-rendering:geometricPrecision; text-rendering:geometricPrecision; image-rendering:optimizeQuality; fill-rule:evenodd; clip-rule:evenodd" xmlns:xlink="http://www.w3.org/1999/xlink">
<g><path style="opacity:1" fill="#fdfefd" d="M -0.5,-0.5 C 135.5,-0.5 271.5,-0.5 407.5,-0.5C 407.5,3.5 407.5,7.5 407.5,11.5C 403.907,6.90308 399.074,4.90308 393,5.5C 384.861,6.79388 376.695,7.96055 368.5,9C 356.976,11.95 347.309,9.1167 339.5,0.5C 340.5,6.71439 344.167,11.2144 350.5,14C 354.631,15.8669 358.964,16.7002 363.5,16.5C 372.157,15.5793 380.823,15.4127 389.5,16C 397.049,21.2754 400.382,28.6087 399.5,38C 397.991,54.8597 393.824,71.0264 387,86.5C 385.363,90.6365 382.53,93.6365 378.5,95.5C 376.851,94.3523 375.351,93.019 374,91.5C 371.194,84.7495 368.194,78.0829 365,71.5C 359.972,66.0481 353.806,64.2147 346.5,66C 351.944,66.3106 356.444,68.4772 360,72.5C 363.332,81.8044 366.665,91.1377 370,100.5C 372.832,108.18 377.665,110.013 384.5,106C 391.661,95.8405 396.827,84.6738 400,72.5C 403.012,61.4644 405.512,50.4644 407.5,39.5C 407.5,62.8333 407.5,86.1667 407.5,109.5C 271.5,109.5 135.5,109.5 -0.5,109.5C -0.5,94.8333 -0.5,80.1667 -0.5,65.5C 7.1739,65.6664 14.8406,65.4997 22.5,65C 31.833,61.686 36.4997,55.0193 36.5,45C 36.4198,37.2454 32.7531,31.9121 25.5,29C 16.9164,27.5901 8.24976,27.0901 -0.5,27.5C -0.5,18.1667 -0.5,8.83333 -0.5,-0.5 Z"/></g>
<g><path style="opacity:1" fill="#627171" d="M 407.5,11.5 C 407.5,20.8333 407.5,30.1667 407.5,39.5C 405.512,50.4644 403.012,61.4644 400,72.5C 396.827,84.6738 391.661,95.8405 384.5,106C 377.665,110.013 372.832,108.18 370,100.5C 366.665,91.1377 363.332,81.8044 360,72.5C 356.444,68.4772 351.944,66.3106 346.5,66C 353.806,64.2147 359.972,66.0481 365,71.5C 368.194,78.0829 371.194,84.7495 374,91.5C 375.351,93.019 376.851,94.3523 378.5,95.5C 382.53,93.6365 385.363,90.6365 387,86.5C 393.824,71.0264 397.991,54.8597 399.5,38C 400.382,28.6087 397.049,21.2754 389.5,16C 380.823,15.4127 372.157,15.5793 363.5,16.5C 358.964,16.7002 354.631,15.8669 350.5,14C 344.167,11.2144 340.5,6.71439 339.5,0.5C 347.309,9.1167 356.976,11.95 368.5,9C 376.695,7.96055 384.861,6.79388 393,5.5C 399.074,4.90308 403.907,6.90308 407.5,11.5 Z"/></g>
<g><path style="opacity:1" fill="#66f219" d="M 312.5,4.5 C 315.85,4.33499 319.183,4.50166 322.5,5C 336.268,11.5508 350.268,17.5508 364.5,23C 370.673,24.1691 376.507,23.3358 382,20.5C 381.204,24.2799 378.704,26.4466 374.5,27C 369.5,27.6667 364.5,27.6667 359.5,27C 351.769,24.5341 344.103,21.8674 336.5,19C 331.572,17.5822 326.572,17.2489 321.5,18C 319.554,21.8807 316.888,25.2141 313.5,28C 307.477,29.6486 304.811,27.3153 305.5,21C 305.073,14.1565 307.406,8.65649 312.5,4.5 Z"/></g>
<g><path style="opacity:1" fill="#627070" d="M -0.5,27.5 C 8.24976,27.0901 16.9164,27.5901 25.5,29C 32.7531,31.9121 36.4198,37.2454 36.5,45C 36.4997,55.0193 31.833,61.686 22.5,65C 14.8406,65.4997 7.1739,65.6664 -0.5,65.5C -0.5,64.8333 -0.5,64.1667 -0.5,63.5C 0.495904,63.5858 1.32924,63.2524 2,62.5C 2.49985,51.505 2.66651,40.505 2.5,29.5C 1.5,29.5 0.5,29.5 -0.5,29.5C -0.5,28.8333 -0.5,28.1667 -0.5,27.5 Z"/></g>
<g><path style="opacity:1" fill="#657373" d="M 224.5,61.5 C 225.488,56.3595 225.821,51.0262 225.5,45.5C 218.5,45.5 211.5,45.5 204.5,45.5C 204.179,51.0262 204.512,56.3595 205.5,61.5C 206.335,62.9432 207.668,63.9432 209.5,64.5C 205.167,65.8333 200.833,65.8333 196.5,64.5C 197.325,63.6143 198.325,63.281 199.5,63.5C 199.5,52.1667 199.5,40.8333 199.5,29.5C 198.022,29.762 196.689,29.4287 195.5,28.5C 199.833,27.1667 204.167,27.1667 208.5,28.5C 207.675,29.3857 206.675,29.719 205.5,29.5C 205.5,33.8333 205.5,38.1667 205.5,42.5C 212.167,42.5 218.833,42.5 225.5,42.5C 225.666,38.4862 225.499,34.4862 225,30.5C 223.795,29.9288 222.628,29.2621 221.5,28.5C 225.459,27.3401 229.459,27.1735 233.5,28C 232.584,28.3742 231.75,28.8742 231,29.5C 230.333,40.5 230.333,51.5 231,62.5C 232.509,63.0897 234.009,63.7564 235.5,64.5C 230.833,65.8333 226.167,65.8333 221.5,64.5C 222.993,63.8589 223.993,62.8589 224.5,61.5 Z"/></g>
<g><path style="opacity:1" fill="#fafbfb" d="M -0.5,29.5 C 0.5,29.5 1.5,29.5 2.5,29.5C 2.66651,40.505 2.49985,51.505 2,62.5C 1.32924,63.2524 0.495904,63.5858 -0.5,63.5C -0.5,52.1667 -0.5,40.8333 -0.5,29.5 Z"/></g>
<g><path style="opacity:1" fill="#f9fafa" d="M 7.5,30.5 C 23.8134,28.3224 31.6467,35.3224 31,51.5C 28.5826,59.2365 23.2492,63.2365 15,63.5C 12.41,63.6243 10.0767,62.9577 8,61.5C 7.50017,51.172 7.33351,40.8387 7.5,30.5 Z"/></g>
<g><path style="opacity:1" fill="#6b7878" d="M 71.5,32.5 C 72.552,32.3505 73.552,32.5172 74.5,33C 82.3645,40.5302 89.8645,48.3635 97,56.5C 97.4997,49.1742 97.6663,41.8409 97.5,34.5C 96.0222,34.762 94.6888,34.4287 93.5,33.5C 97.1667,32.1667 100.833,32.1667 104.5,33.5C 103.675,34.3857 102.675,34.719 101.5,34.5C 101.5,44.8333 101.5,55.1667 101.5,65.5C 100.448,65.6495 99.448,65.4828 98.5,65C 90.6355,57.4698 83.1355,49.6365 76,41.5C 75.3333,48.5 75.3333,55.5 76,62.5C 77.2051,63.0712 78.3717,63.7379 79.5,64.5C 75.8333,65.8333 72.1667,65.8333 68.5,64.5C 69.325,63.6143 70.325,63.281 71.5,63.5C 71.5,53.1667 71.5,42.8333 71.5,32.5 Z"/></g>
<g><path style="opacity:1" fill="#677575" d="M 108.5,32.5 C 117.5,32.5 126.5,32.5 135.5,32.5C 135.663,34.8568 135.497,37.1902 135,39.5C 134.626,38.5838 134.126,37.7504 133.5,37C 130.518,36.502 127.518,36.3354 124.5,36.5C 124.5,45.5 124.5,54.5 124.5,63.5C 125.978,63.238 127.311,63.5713 128.5,64.5C 124.5,65.8333 120.5,65.8333 116.5,64.5C 117.325,63.6143 118.325,63.281 119.5,63.5C 119.5,54.1667 119.5,44.8333 119.5,35.5C 116.482,35.3354 113.482,35.502 110.5,36C 109.953,36.9246 109.287,37.7579 108.5,38.5C 107.306,36.4844 107.306,34.4844 108.5,32.5 Z"/></g>
<g><path style="opacity:1" fill="#677575" d="M 148.5,32.5 C 150.017,32.5106 151.184,33.1772 152,34.5C 155.667,43.5 159.333,52.5 163,61.5C 164.307,62.7717 165.807,63.7717 167.5,64.5C 164.232,65.487 160.898,65.8204 157.5,65.5C 157.522,61.5639 156.522,57.8973 154.5,54.5C 150.955,53.2086 147.455,53.2086 144,54.5C 143.167,57 142.333,59.5 141.5,62C 142.022,62.9503 142.689,63.7836 143.5,64.5C 140.167,65.8333 136.833,65.8333 133.5,64.5C 135.709,63.937 137.209,62.6036 138,60.5C 141.605,51.1818 145.105,41.8484 148.5,32.5 Z"/></g>
<g><path style="opacity:1" fill="#697777" d="M 42.5,32.5 C 48.8333,32.5 55.1667,32.5 61.5,32.5C 61.7989,34.604 61.4656,36.604 60.5,38.5C 57.734,35.8571 54.4006,34.8571 50.5,35.5C 50.5,39.1667 50.5,42.8333 50.5,46.5C 53.909,46.7507 57.2423,46.4173 60.5,45.5C 61.3368,47.8709 61.0034,50.2042 59.5,52.5C 58.6143,51.675 58.281,50.675 58.5,49.5C 55.8333,49.5 53.1667,49.5 50.5,49.5C 50.3345,53.5138 50.5012,57.5138 51,61.5C 55.6477,63.5595 59.3143,62.5595 62,58.5C 62.6667,60.5 62.6667,62.5 62,64.5C 55.5562,65.81 49.0562,65.81 42.5,64.5C 43.325,63.6143 44.325,63.281 45.5,63.5C 45.5,53.8333 45.5,44.1667 45.5,34.5C 43.8212,34.7148 42.8212,34.0481 42.5,32.5 Z"/></g>
<g><path style="opacity:1" fill="#647272" d="M 168.5,32.5 C 172.555,32.1758 176.555,32.5091 180.5,33.5C 179.675,34.3857 178.675,34.719 177.5,34.5C 177.334,43.5062 177.5,52.5062 178,61.5C 181.073,62.6168 184.24,62.7835 187.5,62C 190.335,57.7351 191.168,58.5684 190,64.5C 183.223,65.8111 176.39,65.8111 169.5,64.5C 170.242,63.7132 171.075,63.0465 172,62.5C 172.667,53.5 172.667,44.5 172,35.5C 170.271,35.0257 169.105,34.0257 168.5,32.5 Z"/></g>
<g><path style="opacity:1" fill="#677575" d="M 239.5,32.5 C 243.555,32.1758 247.555,32.5091 251.5,33.5C 250.758,34.2868 249.925,34.9535 249,35.5C 248.333,42.1667 248.333,48.8333 249,55.5C 251.47,63.6538 256.304,65.4871 263.5,61C 264.46,59.5806 265.293,58.0806 266,56.5C 266.667,49.5 266.667,42.5 266,35.5C 264.795,34.9288 263.628,34.2621 262.5,33.5C 266.167,32.1667 269.833,32.1667 273.5,33.5C 272.758,34.2868 271.925,34.9535 271,35.5C 270.667,42.5 270.333,49.5 270,56.5C 266.157,65.1227 259.657,67.956 250.5,65C 246.835,63.332 244.668,60.4987 244,56.5C 243.5,49.1742 243.334,41.8409 243.5,34.5C 241.517,34.8432 240.183,34.1765 239.5,32.5 Z"/></g>
<g><path style="opacity:1" fill="#677575" d="M 278.5,32.5 C 284.262,32.1493 289.928,32.6493 295.5,34C 300.747,38.1195 300.747,42.2862 295.5,46.5C 303.9,51.5664 304.567,57.3997 297.5,64C 291.224,65.7042 284.89,65.8709 278.5,64.5C 279.325,63.6143 280.325,63.281 281.5,63.5C 281.5,53.8333 281.5,44.1667 281.5,34.5C 279.821,34.7148 278.821,34.0481 278.5,32.5 Z"/></g>
<g><path style="opacity:1" fill="#f6f7f7" d="M 286.5,35.5 C 294.241,35.7381 296.241,39.2381 292.5,46C 290.527,46.4955 288.527,46.6621 286.5,46.5C 286.5,42.8333 286.5,39.1667 286.5,35.5 Z"/></g>
<g><path style="opacity:1" fill="#f4f5f5" d="M 148.5,41.5 C 150.607,44.0567 151.941,47.0567 152.5,50.5C 150.5,50.5 148.5,50.5 146.5,50.5C 146.756,47.4021 147.422,44.4021 148.5,41.5 Z"/></g>
<g><path style="opacity:1" fill="#c8cdcd" d="M 224.5,61.5 C 224.5,56.5 224.5,51.5 224.5,46.5C 218.167,46.5 211.833,46.5 205.5,46.5C 205.5,51.5 205.5,56.5 205.5,61.5C 204.512,56.3595 204.179,51.0262 204.5,45.5C 211.5,45.5 218.5,45.5 225.5,45.5C 225.821,51.0262 225.488,56.3595 224.5,61.5 Z"/></g>
<g><path style="opacity:1" fill="#f7f8f8" d="M 286.5,49.5 C 295.772,49.0832 298.772,53.0832 295.5,61.5C 292.634,62.7946 289.801,62.7946 287,61.5C 286.501,57.5138 286.334,53.5138 286.5,49.5 Z"/></g>
<g><path style="opacity:1" fill="#68f21c" d="M 351.5,74.5 C 352.552,74.3505 353.552,74.5172 354.5,75C 351.266,76.9445 349.1,79.7778 348,83.5C 345.845,89.7864 343.845,96.1197 342,102.5C 338.453,109.756 333.787,110.423 328,104.5C 323.151,97.803 319.651,90.4696 317.5,82.5C 319.857,82.3367 322.19,82.5034 324.5,83C 327.113,87.0513 329.613,91.218 332,95.5C 334.423,97.9938 336.756,97.9938 339,95.5C 341.168,87.1411 345.335,80.1411 351.5,74.5 Z"/></g>
<g><path style="opacity:1" fill="#6bf222" d="M 72.5,80.5 C 71.4324,79.5655 70.099,79.2322 68.5,79.5C 67.9031,84.294 68.5698,88.6273 70.5,92.5C 68.9712,93.6357 66.6379,93.8023 63.5,93C 64.0442,92.2828 64.7109,91.7828 65.5,91.5C 66.4834,87.7016 66.8168,83.7016 66.5,79.5C 64.901,79.2322 63.5676,79.5655 62.5,80.5C 62.719,81.675 62.3857,82.675 61.5,83.5C 60.5481,81.9547 60.2148,80.288 60.5,78.5C 65.1667,78.5 69.8333,78.5 74.5,78.5C 74.7852,80.288 74.4519,81.9547 73.5,83.5C 72.6143,82.675 72.281,81.675 72.5,80.5 Z"/></g>
<g><path style="opacity:1" fill="#72f32d" d="M 96.5,79.5 C 98.2884,78.3775 100.288,78.2109 102.5,79C 103.928,82.4498 105.262,85.9498 106.5,89.5C 108.16,86.3534 109.327,83.0201 110,79.5C 112.064,78.4086 114.231,78.2419 116.5,79C 114.611,82.8362 113.945,87.0029 114.5,91.5C 115.675,91.281 116.675,91.6143 117.5,92.5C 115.235,93.6474 112.902,93.8141 110.5,93C 111.733,91.3023 112.4,89.3023 112.5,87C 112.333,85.1667 112.167,83.3333 112,81.5C 110.521,85.4174 109.354,89.4174 108.5,93.5C 107.167,93.5 105.833,93.5 104.5,93.5C 103.646,89.4174 102.479,85.4174 101,81.5C 100.833,83.3333 100.667,85.1667 100.5,87C 100.6,89.3023 101.267,91.3023 102.5,93C 100.421,93.8077 98.4213,93.641 96.5,92.5C 99.0171,87.9039 99.0171,83.5706 96.5,79.5 Z"/></g>
<g><path style="opacity:1" fill="#7cf43e" d="M 136.5,78.5 C 141.167,78.5 145.833,78.5 150.5,78.5C 150.785,80.288 150.452,81.9547 149.5,83.5C 148.614,82.675 148.281,81.675 148.5,80.5C 147.5,80.5 146.5,80.5 145.5,80.5C 144.945,84.9971 145.611,89.1638 147.5,93C 145.098,93.8141 142.765,93.6474 140.5,92.5C 142.346,88.4183 143.013,84.085 142.5,79.5C 139.671,79.3249 138.004,80.6582 137.5,83.5C 136.548,81.9547 136.215,80.288 136.5,78.5 Z"/></g>
<g><path style="opacity:1" fill="#82f444" d="M 207.5,79.5 C 211.634,78.5151 215.968,78.1818 220.5,78.5C 220.785,80.288 220.452,81.9547 219.5,83.5C 218.614,82.675 218.281,81.675 218.5,80.5C 216.5,80.5 214.5,80.5 212.5,80.5C 212.003,84.7592 212.669,88.7592 214.5,92.5C 212.235,93.6474 209.902,93.8141 207.5,93C 208,92.5 208.5,92 209,91.5C 209.167,89.5 209.333,87.5 209.5,85.5C 209.461,83.0478 208.794,81.0478 207.5,79.5 Z"/></g>
<g><path style="opacity:1" fill="#7af438" d="M 157.5,78.5 C 160.518,78.3354 163.518,78.502 166.5,79C 170.455,83.4633 170.455,87.9633 166.5,92.5C 156.754,95.2573 152.921,91.5906 155,81.5C 156.045,80.6266 156.878,79.6266 157.5,78.5 Z"/></g>
<g><path style="opacity:1" fill="#d7fcc0" d="M 62.5,80.5 C 63.5676,79.5655 64.901,79.2322 66.5,79.5C 66.8168,83.7016 66.4834,87.7016 65.5,91.5C 65.5,87.8333 65.5,84.1667 65.5,80.5C 64.5,80.5 63.5,80.5 62.5,80.5 Z"/></g>
<g><path style="opacity:1" fill="#cbfbac" d="M 72.5,80.5 C 71.5,80.5 70.5,80.5 69.5,80.5C 69.2367,84.6002 69.5701,88.6002 70.5,92.5C 68.5698,88.6273 67.9031,84.294 68.5,79.5C 70.099,79.2322 71.4324,79.5655 72.5,80.5 Z"/></g>
<g><path style="opacity:1" fill="#72f32d" d="M 81.5,78.5 C 88.3318,76.7392 92.3318,79.2392 93.5,86C 92.2502,92.9006 88.2502,95.2339 81.5,93C 77.5368,88.1678 77.5368,83.3345 81.5,78.5 Z"/></g>
<g><path style="opacity:1" fill="#f9fef5" d="M 82.5,79.5 C 87.3896,78.8869 90.0562,81.0536 90.5,86C 89.7789,91.3274 86.9456,92.8274 82,90.5C 79.8684,86.6857 80.035,83.019 82.5,79.5 Z"/></g>
<g><path style="opacity:1" fill="#fafef7" d="M 158.5,79.5 C 166.017,79.704 168.35,83.3707 165.5,90.5C 162.966,91.7766 160.466,91.7766 158,90.5C 157.322,86.7789 157.489,83.1122 158.5,79.5 Z"/></g>
<g><path style="opacity:1" fill="#80f442" d="M 194.5,77.5 C 203.672,78.1646 206.505,82.8312 203,91.5C 193.158,96.3176 188.825,93.3176 190,82.5C 191.025,80.313 192.525,78.6464 194.5,77.5 Z"/></g>
<g><path style="opacity:1" fill="#fcfefa" d="M 194.5,79.5 C 201.277,80.3215 203.277,83.9882 200.5,90.5C 193.02,92.1707 190.52,89.1707 193,81.5C 193.717,80.9558 194.217,80.2891 194.5,79.5 Z"/></g>
<g><path style="opacity:1" fill="#72f32c" d="M 47.5,78.5 C 50.5,78.5 53.5,78.5 56.5,78.5C 56.7852,80.288 56.4519,81.9547 55.5,83.5C 54.5713,82.3112 54.238,80.9778 54.5,79.5C 46.4214,79.926 44.4214,83.7593 48.5,91C 51.0991,91.769 53.5991,91.6023 56,90.5C 56.6667,91.1667 56.6667,91.8333 56,92.5C 46.5282,95.0298 42.8615,91.3631 45,81.5C 46.045,80.6266 46.8783,79.6266 47.5,78.5 Z"/></g>
<g><path style="opacity:1" fill="#78f435" d="M 123.5,79.5 C 125.364,78.2072 127.364,78.2072 129.5,79.5C 131.243,83.9838 133.243,88.3171 135.5,92.5C 133.5,93.8333 131.5,93.8333 129.5,92.5C 132.189,89.8718 131.523,88.5384 127.5,88.5C 123.477,88.5384 122.811,89.8718 125.5,92.5C 123.5,93.8333 121.5,93.8333 119.5,92.5C 121.683,88.6329 123.683,84.6329 125.5,80.5C 125.043,79.7025 124.376,79.3691 123.5,79.5 Z"/></g>
<g><path style="opacity:1" fill="#f4feed" d="M 126.5,81.5 C 128.614,82.784 129.614,84.784 129.5,87.5C 128.167,87.5 126.833,87.5 125.5,87.5C 125.833,85.5 126.167,83.5 126.5,81.5 Z"/></g>
<g><path style="opacity:1" fill="#7ef43e" d="M 223.5,79.5 C 225.288,78.3775 227.288,78.2109 229.5,79C 228.28,80.5253 227.613,82.3587 227.5,84.5C 227.667,86.1667 227.833,87.8333 228,89.5C 230.041,85.9162 232.208,82.4162 234.5,79C 236.167,78.3333 237.833,78.3333 239.5,79C 238.248,81.0413 237.581,83.3746 237.5,86C 237.581,88.6254 238.248,90.9587 239.5,93C 237.098,93.8141 234.765,93.6474 232.5,92.5C 234.429,89.7751 234.929,86.7751 234,83.5C 232.167,86.5 230.333,89.5 228.5,92.5C 227.311,93.4287 225.978,93.762 224.5,93.5C 224.819,88.6367 224.486,83.97 223.5,79.5 Z"/></g>
<g><path style="opacity:1" fill="#76f333" d="M 175.5,79.5 C 177.265,78.5386 179.265,78.2053 181.5,78.5C 182.625,83.7122 184.625,88.5455 187.5,93C 185.421,93.8077 183.421,93.641 181.5,92.5C 182.253,88.5654 181.419,84.8987 179,81.5C 177.637,84.5897 176.47,87.7564 175.5,91C 175.905,91.9454 176.572,92.6121 177.5,93C 175.421,93.8077 173.421,93.641 171.5,92.5C 174.434,88.3907 175.767,84.0574 175.5,79.5 Z"/></g>
<g><path style="opacity:1" fill="#73f32e" d="M 250.5,92.5 C 251.794,90.9522 252.461,88.9522 252.5,86.5C 252.495,84.3035 252.162,82.3035 251.5,80.5C 249.533,80.2606 247.699,80.5939 246,81.5C 245.09,83.9449 245.924,85.2782 248.5,85.5C 249.167,86.1667 249.833,86.8333 250.5,87.5C 248.946,88.9142 247.612,90.5808 246.5,92.5C 245.167,93.8333 243.833,93.8333 242.5,92.5C 246.261,90.4442 246.761,88.1109 244,85.5C 242.91,79.9224 245.244,77.5891 251,78.5C 252.833,78.6667 254.667,78.8333 256.5,79C 255.248,81.0413 254.581,83.3746 254.5,86C 254.581,88.6254 255.248,90.9587 256.5,93C 253.676,93.8012 251.676,93.6346 250.5,92.5 Z"/></g>
<g><path style="opacity:1" fill="#b1f884" d="M 251.5,80.5 C 252.162,82.3035 252.495,84.3035 252.5,86.5C 252.461,88.9522 251.794,90.9522 250.5,92.5C 251.72,90.7163 251.72,89.0496 250.5,87.5C 249.833,86.8333 249.167,86.1667 248.5,85.5C 249.5,85.5 250.5,85.5 251.5,85.5C 251.5,83.8333 251.5,82.1667 251.5,80.5 Z"/></g>
<g><path style="opacity:1" fill="#f9fef6" d="M 251.5,80.5 C 251.5,82.1667 251.5,83.8333 251.5,85.5C 250.5,85.5 249.5,85.5 248.5,85.5C 245.924,85.2782 245.09,83.9449 246,81.5C 247.699,80.5939 249.533,80.2606 251.5,80.5 Z"/></g>
</svg>
