<svg xmlns="http://www.w3.org/2000/svg" width="14" height="14" fill="none"><g fill="#fff" clip-path="url(#a)"><path d="M.3 2.6A475.7 475.7 0 0 1 7 8.2c.1 0 .3 0 .4-.2 1-1 4.4-3.8 6.3-5.4.1-.1.1-.3 0-.4-.2-.3-.5-.5-.9-.5H1.2c-.4 0-.7.2-1 .5v.4Zm13.5.9a.3.3 0 0 0-.3 0 838 838 0 0 0-4.2 4 116.2 116.2 0 0 0 4.5 3.2.3.3 0 0 0 .2-.3V3.7a.3.3 0 0 0-.2-.2ZM.5 10.6a115.6 115.6 0 0 0 4.2-3.4V7A841.6 841.6 0 0 0 .1 3.5a.3.3 0 0 0-.2.2v6.7a.3.3 0 0 0 .5.2Z"/><path d="M13.6 11.4A119.5 119.5 0 0 1 8.5 8l-.7.5c-.5.5-1.1.5-1.6 0a50.6 50.6 0 0 0-1-.6 120 120 0 0 1-5 4h.1c.2.3.5.4.9.4h11.6c.4 0 .7 0 .9-.3a.3.3 0 0 0 0-.5Z"/></g><defs><clipPath id="a"><path fill="#fff" d="M0 0h14v14H0z"/></clipPath></defs></svg>