<svg xmlns="http://www.w3.org/2000/svg" width="30" height="30" fill="none"><g clip-path="url(#a)"><path fill="url(#b)" d="M15 0a15 15 0 1 0 0 30 15 15 0 0 0 0-30Zm0 28.1a13.1 13.1 0 1 1 0-26.3 13.1 13.1 0 0 1 0 26.3ZM23.3 15c0 .5-.4 1-1 1H16v6.4a1 1 0 0 1-1.8 0v-6.5H7.6a1 1 0 0 1 0-1.8h6.5V7.6a1 1 0 0 1 1.8 0v6.5h6.5c.5 0 1 .4 1 .9Z"/></g><defs><linearGradient id="b" x1="20.9" x2="20.9" y1="53.9" y2="-18.1" gradientUnits="userSpaceOnUse"><stop stop-color="#24A363"/><stop offset="1" stop-color="#4BDD48"/></linearGradient><clipPath id="a"><path fill="#fff" d="M0 0h30v30H0z"/></clipPath></defs></svg>