<svg xmlns="http://www.w3.org/2000/svg" width="30" height="30" fill="none"><g clip-path="url(#a)"><path fill="url(#b)" d="M15 0C9 0 4.2 4.8 4.2 10.8 4.2 14 6 18 9.4 23.2A69 69 0 0 0 15 30a.6.6 0 0 0 .4-.2 69 69 0 0 0 5.2-6.6c3.4-5 5.2-9.2 5.2-12.4C25.8 4.8 20.9 0 15 0Zm0 28.6C13.1 26.4 5.4 17 5.4 10.8a9.7 9.7 0 0 1 19.2 0c0 6.2-7.7 15.6-9.6 17.8Z"/><path fill="url(#c)" d="M15 5.4a5 5 0 1 0 0 9.9 5 5 0 0 0 0-10Zm0 8.7a3.8 3.8 0 1 1 0-7.6 3.8 3.8 0 0 1 0 7.6Z"/></g><defs><linearGradient id="b" x1="19.2" x2="19.2" y1="53.9" y2="-18.1" gradientUnits="userSpaceOnUse"><stop stop-color="#24A363"/><stop offset="1" stop-color="#4BDD48"/></linearGradient><linearGradient id="c" x1="16.9" x2="16.9" y1="23.1" y2="-.6" gradientUnits="userSpaceOnUse"><stop stop-color="#24A363"/><stop offset="1" stop-color="#4BDD48"/></linearGradient><clipPath id="a"><path fill="#fff" d="M0 0h30v30H0z"/></clipPath></defs></svg>