<svg xmlns="http://www.w3.org/2000/svg" width="125" height="129" fill="none"><g fill="#86EF64" clip-path="url(#a)"><path d="M-2.5 28.1a3.3 3.3 0 1 1 0 6.6 3.3 3.3 0 0 1 0-6.6Z"/><path stroke="#86EF64" d="M86.6 14.8c27.8 8.9 40.7 49.3 18.5 81.8A76.7 76.7 0 0 0 92 136c-1 9.1-2.2 18.6-6.9 29.7l-.4-.2.4.2a51.6 51.6 0 0 1-5.8 10.9c-2.4 3-5.2 5.4-8.8 5.4h-.2c-2.8-.1-5.3-1.5-7.6-4.4a46 46 0 0 1-6.6-12.9l.5-.2-.5.2c-2.2-6-3.6-13-4.9-19.6-1.2-6.1-2.4-12.3-4.1-16.9-.9-2.3-1.8-4.2-3-5.5-1-1.3-2.2-2-3.6-2s-2.6.7-3.7 2c-1 1.3-2 3.2-2.9 5.5-1.6 4.6-2.9 10.7-4 16.8a136 136 0 0 1-5 19.7 46 46 0 0 1-6.6 13c-2.3 2.8-4.8 4.2-7.6 4.3h-.2c-3.5 0-6.4-2.3-8.7-5.4a51.7 51.7 0 0 1-5.9-10.9c-4.5-10.6-5.6-20-6.8-29.2a79.4 79.4 0 0 0-13.3-40l.4-.2-.4.3c-22.4-33-8.8-73 18.6-81.8C15 8 32.3 15.4 40.4 20a57.7 57.7 0 0 1 46.2-5.2ZM29.2 144.9c-1.3 6.8-2.7 13.7-4.9 19.6-4.2 11.6-8.5 16.9-13.7 17l18.6-36.6Zm11.1-31.8h.1c5.7 0 10.1 3.8 13 10.8 2.3 5.4 3.7 12.4 5.2 19.6 1.3 6.6 2.6 13.2 4.6 18.6 2.2 6.2 4.1 9.2 5.4 10.8 1 1.3 1.7 1.4 1.8 1.5.1 0 .8-.1 2-1.5 1.3-1.4 3.2-4.3 5.6-10.1a93.8 93.8 0 0 0 6.4-27.7c1.5-12.8 3-26 14.4-42.8 19.7-28.9 7.8-63.1-14.6-70.3a50.4 50.4 0 0 0-41.8 5.7 3.8 3.8 0 0 1-4 0c-6-3.8-22.2-12-41.8-5.7a36.6 36.6 0 0 0-23.1 27.3 53.8 53.8 0 0 0 8.5 43 86.9 86.9 0 0 1 14.6 43.3c1.1 9 2.2 17.5 6.2 27.2 2.4 5.7 4.3 8.6 5.6 10.1 1.3 1.4 2 1.5 2 1.5s.7-.2 1.8-1.5c1.3-1.5 3.2-4.6 5.5-10.8l.4.2-.4-.2c2-5.4 3.3-12 4.6-18.6a108 108 0 0 1 5-19.7c3-7 7.4-10.7 13-10.7Z"/><path d="M-19.4 46.8c1-3.2 2.5-6 4.2-8.6A3.3 3.3 0 0 1-9.7 42c-1.4 2-2.6 4.3-3.5 6.9a40.4 40.4 0 0 0 2.4 30.5 3.3 3.3 0 1 1-6 3 47 47 0 0 1-2.6-35.6Zm71.8 11 13.3-4.5L70.2 40a3.3 3.3 0 0 1 6.2 0L81 53.3l13.3 4.4a3.3 3.3 0 0 1 0 6.3l-13.3 4.4-4.5 13.3a3.3 3.3 0 0 1-6.2 0l-4.5-13.3L52.4 64a3.3 3.3 0 0 1 0-6.3Zm17 4.9a3.3 3.3 0 0 1 2 2l1.9 5.5 1.8-5.4a3.3 3.3 0 0 1 2.1-2.1l5.5-1.8-5.5-1.9a3.3 3.3 0 0 1-2-2l-1.9-5.5-1.8 5.5a3.3 3.3 0 0 1-2.1 2L63.9 61l5.5 1.8Z"/></g><defs><clipPath id="a"><path fill="#fff" d="M125 0H0v129h105c11 0 20-9 20-20V0Z"/></clipPath></defs></svg>