<svg width="99" height="99" viewBox="0 0 99 99" fill="none" xmlns="http://www.w3.org/2000/svg">
<g filter="url(#filter0_d_20_6297)">
<circle cx="49.5" cy="49.5" r="35.5" fill="#30BC57"/>
<g clip-path="url(#clip0_20_6297)">
<path d="M56.7578 53.4866C56.246 52.9537 55.6286 52.6688 54.9743 52.6688C54.3253 52.6688 53.7027 52.9484 53.1698 53.4813L51.5024 55.1434C51.3653 55.0695 51.2281 55.0009 51.0962 54.9323C50.9062 54.8374 50.7268 54.7477 50.5738 54.6527C49.012 53.6607 47.5926 52.368 46.2313 50.6954C45.5718 49.8617 45.1285 49.1599 44.8067 48.4476C45.2393 48.0519 45.6403 47.6403 46.0308 47.2446C46.1785 47.0969 46.3263 46.9438 46.474 46.7961C47.5821 45.6881 47.5821 44.2529 46.474 43.1448L45.0336 41.7044C44.87 41.5408 44.7011 41.3719 44.5428 41.2031C44.2263 40.876 43.8938 40.5383 43.5509 40.2217C43.0391 39.7151 42.427 39.446 41.7833 39.446C41.1396 39.446 40.5169 39.7151 39.9893 40.2217L39.9787 40.2322L38.1848 42.042C37.5094 42.7174 37.1242 43.5405 37.0398 44.4956C36.9131 46.0363 37.3669 47.4715 37.7152 48.4107C38.5699 50.7165 39.8468 52.8534 41.7516 55.1434C44.0627 57.903 46.8434 60.0821 50.0198 61.6176C51.2334 62.1927 52.8532 62.8734 54.663 62.9894C54.7738 62.9947 54.8899 63 54.9954 63C56.2143 63 57.2379 62.562 58.0399 61.6914C58.0452 61.6809 58.0558 61.6756 58.061 61.6651C58.3354 61.3326 58.652 61.0319 58.9844 60.71C59.2113 60.4937 59.4435 60.2668 59.6704 60.0294C60.1927 59.4859 60.4671 58.8527 60.4671 58.2037C60.4671 57.5494 60.1874 56.9216 59.6545 56.3939L56.7578 53.4866ZM58.6467 59.0427C58.6414 59.0427 58.6414 59.0479 58.6467 59.0427C58.4409 59.2643 58.2299 59.4648 58.003 59.6864C57.66 60.0135 57.3118 60.3565 56.9847 60.7417C56.4517 61.3115 55.8238 61.5806 55.0007 61.5806C54.9216 61.5806 54.8371 61.5806 54.758 61.5754C53.1909 61.4751 51.7346 60.863 50.6424 60.3407C47.6559 58.8949 45.0336 56.8424 42.8544 54.2411C41.0551 52.0725 39.8521 50.0675 39.0554 47.9147C38.5647 46.6009 38.3853 45.5772 38.4644 44.6117C38.5172 43.9943 38.7546 43.4825 39.1926 43.0446L40.9918 41.2453C41.2504 41.0026 41.5247 40.8707 41.7938 40.8707C42.1262 40.8707 42.3953 41.0712 42.5642 41.24L42.58 41.2559C42.9019 41.5566 43.2079 41.8679 43.5298 42.2003C43.6933 42.3692 43.8622 42.538 44.031 42.7122L45.4715 44.1526C46.0308 44.7119 46.0308 45.229 45.4715 45.7883C45.3185 45.9413 45.1707 46.0943 45.0177 46.2421C44.5745 46.6958 44.1524 47.118 43.6933 47.5295C43.6828 47.5401 43.6722 47.5454 43.667 47.5559C43.2132 48.0097 43.2976 48.4529 43.3926 48.7537L43.4084 48.8011C43.783 49.7087 44.3107 50.5635 45.1127 51.5818L45.118 51.5871C46.5743 53.3811 48.1097 54.7793 49.8034 55.8504C50.0198 55.9876 50.2414 56.0984 50.4524 56.204C50.6424 56.2989 50.8218 56.3886 50.9748 56.4836C50.9959 56.4942 51.017 56.51 51.0381 56.5205C51.2175 56.6102 51.3864 56.6525 51.5605 56.6525C51.9984 56.6525 52.2728 56.3781 52.3625 56.2884L54.167 54.4838C54.3464 54.3044 54.6314 54.0881 54.9638 54.0881C55.2909 54.0881 55.56 54.2939 55.7236 54.4733L55.7341 54.4838L58.6414 57.3912C59.1849 57.9293 59.1849 58.4834 58.6467 59.0427ZM50.5105 43.9468C51.8929 44.179 53.1487 44.8333 54.1512 45.8358C55.1537 46.8383 55.8027 48.0941 56.0402 49.4765C56.0982 49.8248 56.399 50.0675 56.7419 50.0675C56.7841 50.0675 56.8211 50.0622 56.8633 50.0569C57.2537 49.9936 57.5123 49.6243 57.449 49.2338C57.164 47.5612 56.3726 46.0363 55.1643 44.828C53.956 43.6197 52.4311 42.8282 50.7585 42.5433C50.368 42.48 50.0039 42.7385 49.9354 43.1237C49.8668 43.5089 50.12 43.8835 50.5105 43.9468ZM61.9709 49.028C61.5013 46.2737 60.2033 43.7674 58.2088 41.7729C56.2143 39.7785 53.708 38.4805 50.9537 38.0109C50.5685 37.9423 50.2044 38.2061 50.1359 38.5913C50.0725 38.9817 50.3311 39.3458 50.7215 39.4144C53.1804 39.8312 55.4228 40.9973 57.2063 42.7755C58.9897 44.5589 60.1505 46.8014 60.5673 49.2602C60.6254 49.6084 60.9261 49.8511 61.2691 49.8511C61.3113 49.8511 61.3483 49.8459 61.3905 49.8406C61.7756 49.7826 62.0395 49.4132 61.9709 49.028Z" fill="white"/>
</g>
</g>
<defs>
<filter id="filter0_d_20_6297" x="0" y="0" width="100" height="100" filterUnits="userSpaceOnUse" color-interpolation-filters="sRGB">
<feFlood flood-opacity="0" result="BackgroundImageFix"/>
<feColorMatrix in="SourceAlpha" type="matrix" values="0 0 0 0 0 0 0 0 0 0 0 0 0 0 0 0 0 0 127 0" result="hardAlpha"/>
<feOffset/>
<feGaussianBlur stdDeviation="10"/>
<feComposite in2="hardAlpha" operator="out"/>
<feColorMatrix type="matrix" values="0 0 0 0 1 0 0 0 0 1 0 0 0 0 1 0 0 0 1 0"/>
<feBlend mode="normal" in2="BackgroundImageFix" result="effect1_dropShadow_20_6297"/>
<feBlend mode="normal" in="SourceGraphic" in2="effect1_dropShadow_20_6297" result="shape"/>
</filter>
<clipPath id="clip0_20_6297">
<rect width="25" height="25" fill="white" transform="translate(37 38)"/>
</clipPath>
</defs>
</svg>
