<svg width="23" height="23" viewBox="0 0 23 23" fill="none" xmlns="http://www.w3.org/2000/svg">
<g clip-path="url(#clip0_6_1002)">
<path d="M15.4879 3.65701C15.4123 3.58 15.3222 3.51884 15.2226 3.47708C15.1231 3.43532 15.0163 3.41382 14.9084 3.41382C14.8005 3.41382 14.6936 3.43532 14.5941 3.47708C14.4946 3.51884 14.4044 3.58 14.3288 3.65701C14.1783 3.81002 14.0939 4.01608 14.0939 4.23073C14.0939 4.44539 14.1783 4.65144 14.3288 4.80445L20.2063 10.6819H0.811476C0.704716 10.6814 0.598919 10.7021 0.500201 10.7428C0.401483 10.7834 0.311803 10.8432 0.236346 10.9188C0.160888 10.9943 0.10115 11.084 0.0605846 11.1828C0.0200193 11.2815 -0.000568339 11.3873 1.19333e-05 11.4941C1.19333e-05 11.9462 0.359364 12.3173 0.811476 12.3173H20.2063L14.3288 18.1838C14.0155 18.508 14.0155 19.0303 14.3288 19.3429C14.4044 19.4199 14.4946 19.4811 14.5941 19.5228C14.6936 19.5646 14.8005 19.5861 14.9084 19.5861C15.0163 19.5861 15.1231 19.5646 15.2226 19.5228C15.3222 19.4811 15.4123 19.4199 15.4879 19.3429L22.7568 12.074C22.8337 11.9996 22.8949 11.9104 22.9367 11.8119C22.9785 11.7133 23 11.6074 23 11.5003C23 11.3933 22.9785 11.2873 22.9367 11.1887C22.8949 11.0902 22.8337 11.001 22.7568 10.9266L15.4879 3.65701Z" fill="white"/>
</g>
<defs>
<clipPath id="clip0_6_1002">
<rect width="23" height="23" fill="white"/>
</clipPath>
</defs>
</svg>
