<svg width="35" height="35" viewBox="0 0 35 35" fill="none" xmlns="http://www.w3.org/2000/svg">
<g opacity="0.5">
<path d="M28.1458 9.18748C29.6041 10.7916 30.4791 12.5416 30.4791 15.4583C30.4791 20.5625 26.8333 25.0833 21.7291 27.4166L20.4166 25.5208C25.2291 22.8958 26.2499 19.5416 26.5416 17.3541C25.8124 17.7916 24.7916 17.9375 23.7708 17.7916C21.1458 17.5 19.1041 15.4583 19.1041 12.6875C19.1041 11.375 19.6874 10.0625 20.5624 9.04165C21.5833 8.02081 22.7499 7.58331 24.2083 7.58331C25.8124 7.58331 27.2708 8.31248 28.1458 9.18748ZM13.5624 9.18748C15.0208 10.7916 15.8958 12.5416 15.8958 15.4583C15.8958 20.5625 12.2499 25.0833 7.14575 27.4166L5.83325 25.5208C10.6458 22.8958 11.6666 19.5416 11.9583 17.3541C11.2291 17.7916 10.2083 17.9375 9.18742 17.7916C6.56242 17.5 4.52075 15.3125 4.52075 12.6875C4.52075 11.375 5.10409 10.0625 5.97909 9.04165C6.99992 8.02081 8.16659 7.58331 9.62492 7.58331C11.2291 7.58331 12.6874 8.31248 13.5624 9.18748Z" fill="url(#paint0_linear_25_6536)"/>
</g>
<defs>
<linearGradient id="paint0_linear_25_6536" x1="22.565" y1="43.2099" x2="22.565" y2="-4.35342" gradientUnits="userSpaceOnUse">
<stop stop-color="#24A363"/>
<stop offset="1" stop-color="#4BDD48"/>
</linearGradient>
</defs>
</svg>
