<svg width="14" height="14" viewBox="0 0 14 14" fill="none" xmlns="http://www.w3.org/2000/svg">
<g clip-path="url(#clip0_34_818)">
<path d="M0.29225 2.60192C2.2137 4.22918 5.58523 7.09201 6.57617 7.98465C6.7092 8.10513 6.85188 8.16638 7 8.16638C7.14782 8.16638 7.29025 8.1057 7.42298 7.9858C8.41477 7.09229 11.7863 4.22918 13.7078 2.60192C13.8274 2.5008 13.8456 2.32307 13.7488 2.19945C13.5249 1.91379 13.1911 1.75 12.8333 1.75H1.16668C0.808937 1.75 0.475098 1.91379 0.251234 2.19948C0.154383 2.32307 0.172621 2.5008 0.29225 2.60192ZM13.8308 3.48376C13.7804 3.46024 13.7243 3.45171 13.6691 3.45919C13.614 3.46666 13.5621 3.48983 13.5198 3.52592C12.2614 4.5926 10.6034 6.00195 9.35301 7.07747C9.32052 7.10539 9.29459 7.14013 9.27707 7.17922C9.25954 7.21832 9.25085 7.26079 9.25162 7.30363C9.25235 7.34647 9.26254 7.38862 9.28144 7.42707C9.30035 7.46552 9.32751 7.49933 9.361 7.52607C10.5228 8.4566 12.2737 9.73664 13.538 10.6464C13.5876 10.6822 13.6472 10.7014 13.7084 10.7014C13.7539 10.7014 13.7995 10.6908 13.8414 10.6692C13.8891 10.6447 13.9292 10.6075 13.9572 10.5618C13.9852 10.516 14 10.4633 14 10.4097V3.74836C14 3.69271 13.9841 3.63822 13.9541 3.59133C13.9241 3.54444 13.8813 3.50711 13.8308 3.48376ZM0.462 10.6464C1.72665 9.73664 3.4778 8.45663 4.63933 7.52607C4.67281 7.49932 4.69997 7.46552 4.71888 7.42707C4.73779 7.38862 4.74797 7.34647 4.74871 7.30363C4.74948 7.26079 4.74079 7.21832 4.72326 7.17922C4.70574 7.14013 4.67981 7.10539 4.64732 7.07747C3.39689 6.00195 1.7386 4.5926 0.480238 3.52592C0.437796 3.48999 0.385974 3.46694 0.330871 3.45947C0.275768 3.452 0.219678 3.46043 0.169203 3.48376C0.11868 3.50711 0.0758986 3.54443 0.0459146 3.59132C0.0159306 3.63821 -2.02661e-06 3.69271 1.93349e-10 3.74836L1.93349e-10 10.4097C1.93349e-10 10.5191 0.06125 10.6194 0.158648 10.6692C0.199773 10.6904 0.245396 10.7015 0.291676 10.7014C0.352824 10.7014 0.412431 10.6822 0.462 10.6464Z" fill="white"/>
<path d="M13.6426 11.44C12.4215 10.5664 10.1722 8.93773 8.82953 7.84794C8.72016 7.7588 8.56178 7.76165 8.45413 7.85451C8.19067 8.08436 7.9702 8.27806 7.81382 8.41874C7.33358 8.85225 6.66708 8.85225 6.18572 8.41817C6.02991 8.27776 5.80947 8.08348 5.54598 7.85448C5.43918 7.76104 5.28053 7.7582 5.17086 7.84792C3.83271 8.93398 1.58084 10.5646 0.357781 11.4399C0.324128 11.4641 0.295987 11.4951 0.275218 11.531C0.254449 11.5668 0.241527 11.6066 0.237304 11.6478C0.233156 11.6891 0.237844 11.7307 0.251055 11.77C0.264266 11.8093 0.285698 11.8453 0.313922 11.8757C0.534695 12.1136 0.84573 12.25 1.16675 12.25H12.8334C13.1544 12.25 13.4652 12.1136 13.6865 11.8757C13.7147 11.8454 13.7361 11.8094 13.7493 11.7702C13.7625 11.7309 13.7672 11.6893 13.7631 11.6482C13.7589 11.6069 13.7459 11.567 13.7252 11.5311C13.7044 11.4952 13.6763 11.4642 13.6426 11.44Z" fill="white"/>
</g>
<defs>
<clipPath id="clip0_34_818">
<rect width="14" height="14" fill="white"/>
</clipPath>
</defs>
</svg>
