<svg width="26" height="26" viewBox="0 0 26 26" fill="none" xmlns="http://www.w3.org/2000/svg">
<path d="M24.9167 14.0668H1.08333C0.485333 14.0668 0 13.5815 0 12.9835C0 12.3855 0.485333 11.9001 1.08333 11.9001H24.9167C25.5147 11.9001 26 12.3855 26 12.9835C26 13.5815 25.5147 14.0668 24.9167 14.0668ZM24.9167 5.76115H1.08333C0.485333 5.76115 0 5.27582 0 4.67782C0 4.07982 0.485333 3.59448 1.08333 3.59448H24.9167C25.5147 3.59448 26 4.07982 26 4.67782C26 5.27582 25.5147 5.76115 24.9167 5.76115ZM24.9167 22.3722H1.08333C0.485333 22.3722 0 21.8868 0 21.2888C0 20.6908 0.485333 20.2055 1.08333 20.2055H24.9167C25.5147 20.2055 26 20.6908 26 21.2888C26 21.8868 25.5147 22.3722 24.9167 22.3722Z" fill="white"/>
</svg>
