<svg width="35" height="35" viewBox="0 0 35 35" fill="none" xmlns="http://www.w3.org/2000/svg">
<g opacity="0.5">
<path d="M6.85425 25.8125C5.39592 24.2084 4.52092 22.4583 4.52092 19.5417C4.52092 14.4375 8.16675 9.91668 13.2709 7.58335L14.5834 9.47918C9.77092 12.1042 8.75008 15.4584 8.45841 17.6459C9.18758 17.2084 10.2084 17.0625 11.2293 17.2084C13.8543 17.5 15.8959 19.5417 15.8959 22.3125C15.8959 23.625 15.3126 24.9375 14.4376 25.9584C13.4167 26.9792 12.2501 27.4167 10.7917 27.4167C9.18758 27.4167 7.72925 26.6875 6.85425 25.8125ZM21.4376 25.8125C19.9792 24.2084 19.1042 22.4584 19.1042 19.5417C19.1042 14.4375 22.7501 9.91668 27.8542 7.58335L29.1667 9.47918C24.3542 12.1042 23.3334 15.4584 23.0417 17.6459C23.7709 17.2084 24.7917 17.0625 25.8126 17.2084C28.4376 17.5 30.4792 19.6875 30.4792 22.3125C30.4792 23.625 29.8959 24.9375 29.0209 25.9584C28.0001 26.9792 26.8334 27.4167 25.3751 27.4167C23.7709 27.4167 22.3126 26.6875 21.4376 25.8125Z" fill="url(#paint0_linear_25_6539)"/>
</g>
<defs>
<linearGradient id="paint0_linear_25_6539" x1="12.435" y1="-8.20986" x2="12.435" y2="39.3534" gradientUnits="userSpaceOnUse">
<stop stop-color="#24A363"/>
<stop offset="1" stop-color="#4BDD48"/>
</linearGradient>
</defs>
</svg>
