<svg width="125" height="129" viewBox="0 0 125 129" fill="none" xmlns="http://www.w3.org/2000/svg">
<g clip-path="url(#clip0_25_6558)">
<path d="M-2.54403 28.1043C-0.719931 28.1043 0.760498 29.5821 0.760498 31.4029C0.760498 33.2237 -0.719931 34.7015 -2.54403 34.7015C-4.36813 34.7015 -5.84856 33.2237 -5.84856 31.4029C-5.84856 29.5821 -4.36879 28.1043 -2.54403 28.1043Z" fill="#86EF64"/>
<path d="M86.5523 14.7658L86.5524 14.7658C114.404 23.6835 127.272 64.1242 105.124 96.6103L105.124 96.6104C94.767 111.796 93.3848 123.487 91.9127 135.956L91.9108 135.972C90.832 145.108 89.7091 154.618 85.0203 165.733L84.5596 165.538L85.0203 165.733C83.4503 169.453 81.5391 173.483 79.1799 176.589C76.8276 179.686 73.9515 181.964 70.438 181.963C70.3754 181.963 70.3112 181.963 70.2478 181.961L70.2472 181.961C67.4223 181.895 64.9167 180.454 62.6026 177.611C60.2978 174.779 58.1495 170.519 56.016 164.711L56.4854 164.538L56.016 164.711C53.8363 158.773 52.442 151.778 51.103 145.061L51.0974 145.033C49.8865 138.958 48.6648 132.837 46.9692 128.226C46.1213 125.921 45.1687 124.033 44.0681 122.727C42.9752 121.431 41.7691 120.742 40.3896 120.732H40.3577C38.9974 120.732 37.8054 121.41 36.722 122.702C35.6315 124.002 34.6861 125.886 33.8433 128.189C32.1581 132.796 30.939 138.92 29.7306 144.997L29.7263 145.019C28.3863 151.759 26.9908 158.778 24.8106 164.712C22.6746 170.528 20.5251 174.795 18.2205 177.631C15.9066 180.478 13.4024 181.921 10.5795 181.988L10.5788 181.988C10.5152 181.989 10.4523 181.99 10.3889 181.99C6.88149 181.99 4.00715 179.707 1.65486 176.606C-0.704613 173.496 -2.61842 169.459 -4.19066 165.732C-8.67203 155.11 -9.84608 145.624 -10.9737 136.514L-10.976 136.495C-12.5632 123.671 -14.0536 111.649 -24.319 96.5751L-23.9057 96.2937L-24.319 96.5751C-46.7283 63.666 -33.106 23.5283 -5.72169 14.7658C14.979 8.13984 32.3068 15.4128 40.4145 20.0295C48.5214 15.4118 65.8467 8.13853 86.5523 14.7658ZM29.2402 144.899C27.8969 151.656 26.5077 158.643 24.3413 164.539C20.0824 176.136 15.8344 181.364 10.5677 181.488L29.2402 144.899ZM40.3467 113.134H40.3486L40.4395 113.134L40.4411 113.134C46.1439 113.174 50.5037 116.898 53.4459 123.906C55.7268 129.338 57.1067 136.262 58.553 143.518L58.5593 143.55C59.8551 150.05 61.1854 156.718 63.1593 162.096C65.4241 168.261 67.2989 171.349 68.5923 172.888C69.6917 174.195 70.3412 174.35 70.4301 174.366C70.5185 174.358 71.1695 174.254 72.3401 172.949C73.6506 171.488 75.5642 168.572 78.0067 162.783C82.2745 152.667 83.2822 144.151 84.3545 135.067L84.3552 135.061C85.8596 122.32 87.4251 109.061 98.8328 92.3354C118.54 63.4295 106.571 29.1552 84.228 22.0009C64.6546 15.7358 48.4907 23.8726 42.4398 27.6721C41.8333 28.0531 41.1314 28.2552 40.4149 28.2552C39.6985 28.2553 38.9966 28.0534 38.3901 27.6726C32.3367 23.874 16.1688 15.7377 -3.39944 22.0013L-3.39951 22.0013C-14.7954 25.6474 -23.2782 36.11 -26.4994 49.2514C-29.7182 62.3834 -27.6661 78.147 -18.0261 92.3033C-6.72416 108.899 -5.04165 122.492 -3.42506 135.553L-3.42377 135.563C-2.30091 144.636 -1.24619 153.139 2.82227 162.783C5.24414 168.522 7.13981 171.445 8.44615 172.926C9.65418 174.294 10.3171 174.386 10.394 174.392C10.4793 174.377 11.1278 174.225 12.2297 172.911C13.5225 171.369 15.3977 168.274 17.6667 162.095L18.136 162.267L17.6667 162.095C19.6398 156.725 20.9708 150.037 22.267 143.517L22.2755 143.475C23.7219 136.2 25.1019 129.259 27.3827 123.826C30.3188 116.833 34.6639 113.134 40.3467 113.134Z" fill="#86EF64" stroke="#86EF64"/>
<path d="M-19.4325 46.7524C-18.3592 43.6422 -16.9366 40.7804 -15.2047 38.2461C-14.176 36.7407 -12.1202 36.3531 -10.6127 37.3799C-9.10483 38.4064 -8.71655 40.4585 -9.74525 41.9636C-11.1454 44.0123 -12.3023 46.3467 -13.1839 48.9011C-16.4769 58.4419 -15.6177 69.5742 -10.8265 79.4438C-10.0304 81.0832 -10.7168 83.056 -12.3591 83.8507C-14.0018 84.6453 -15.9782 83.9602 -16.774 82.3208C-22.3216 70.8936 -23.2908 57.9293 -19.4325 46.7524ZM52.4232 57.7267L65.7262 53.3004L70.1606 40.0214C70.3801 39.3647 70.8009 38.7936 71.3635 38.3889C71.9262 37.9842 72.6021 37.7665 73.2956 37.7665C73.9891 37.7665 74.665 37.9842 75.2277 38.3889C75.7903 38.7936 76.2111 39.3647 76.4306 40.0214L80.865 53.3004L94.168 57.7267C94.8259 57.9458 95.398 58.3659 95.8034 58.9275C96.2088 59.4891 96.427 60.1638 96.427 60.8561C96.427 61.5483 96.2088 62.223 95.8034 62.7847C95.398 63.3463 94.8259 63.7664 94.168 63.9854L80.865 68.4118L76.4306 81.6908C76.2111 82.3474 75.7903 82.9185 75.2277 83.3232C74.665 83.7279 73.9891 83.9457 73.2956 83.9457C72.6021 83.9457 71.9262 83.7279 71.3635 83.3232C70.8009 82.9185 70.3801 82.3474 70.1606 81.6908L65.7262 68.4118L52.4232 63.9854C51.7653 63.7664 51.1932 63.3463 50.7878 62.7847C50.3824 62.223 50.1642 61.5483 50.1642 60.8561C50.1642 60.1638 50.3824 59.4891 50.7878 58.9275C51.1932 58.3659 51.7653 57.9458 52.4232 57.7267ZM69.3837 62.6746C69.8705 62.8365 70.3127 63.1093 70.6755 63.4714C71.0383 63.8336 71.3116 64.275 71.4738 64.7609L73.2956 70.2167L75.1174 64.7609C75.2796 64.275 75.5529 63.8336 75.9157 63.4714C76.2785 63.1093 76.7208 62.8365 77.2075 62.6746L82.6732 60.8561L77.2075 59.0376C76.7208 58.8757 76.2785 58.6029 75.9157 58.2408C75.5529 57.8786 75.2796 57.4371 75.1174 56.9513L73.2956 51.4954L71.4738 56.9513C71.3116 57.4371 71.0383 57.8786 70.6755 58.2408C70.3127 58.6029 69.8705 58.8757 69.3837 59.0376L63.918 60.8561L69.3837 62.6746Z" fill="#86EF64"/>
</g>
<defs>
<clipPath id="clip0_25_6558">
<path d="M125 0H0V129H105C116.046 129 125 120.046 125 109V0Z" fill="white"/>
</clipPath>
</defs>
</svg>
